<?xml version="1.0" encoding="utf-8"?>
<!-- Generator: Adobe Illustrator 16.0.0, SVG Export Plug-In . SVG Version: 6.00 Build 0)  -->
<!DOCTYPE svg PUBLIC "-//W3C//DTD SVG 1.1//EN" "http://www.w3.org/Graphics/SVG/1.1/DTD/svg11.dtd">
<svg version="1.1" id="Livello_1" xmlns="http://www.w3.org/2000/svg" xmlns:xlink="http://www.w3.org/1999/xlink" x="0px" y="0px"
	 width="127.561px" height="147.4px" viewBox="0 0 127.561 147.4" enable-background="new 0 0 127.561 147.4" xml:space="preserve">
<g>
	<polygon fill="#311818" points="64.32,2.041 126.542,38.029 126.542,110.035 64.32,146.04 2.101,110.035 2.101,38.029 	"/>
	<polygon fill="#9A2927" points="64.32,5.978 123.141,39.998 123.141,108.067 64.32,142.104 5.502,108.067 5.502,39.998 	"/>
	
		<linearGradient id="SVGID_1_" gradientUnits="userSpaceOnUse" x1="8.3499" y1="7.1003" x2="-84.5048" y2="99.9551" gradientTransform="matrix(1 0 0 -1 102.3999 127.5601)">
		<stop  offset="0" style="stop-color:#E6322D"/>
		<stop  offset="1" style="stop-color:#E6322D;stop-opacity:0"/>
	</linearGradient>
	<polygon fill="url(#SVGID_1_)" points="64.32,5.978 123.141,39.998 123.141,108.067 64.32,142.104 5.502,108.067 5.502,39.998 	"/>
	
		<linearGradient id="SVGID_2_" gradientUnits="userSpaceOnUse" x1="-96.9348" y1="87.4988" x2="20.7702" y2="19.5417" gradientTransform="matrix(1 0 0 -1 102.3999 127.5601)">
		<stop  offset="0" style="stop-color:#8F1D18"/>
		<stop  offset="0.193" style="stop-color:#921E19;stop-opacity:0.807"/>
		<stop  offset="0.3838" style="stop-color:#9B211C;stop-opacity:0.6162"/>
		<stop  offset="0.5737" style="stop-color:#A92521;stop-opacity:0.4263"/>
		<stop  offset="0.7632" style="stop-color:#BF2A26;stop-opacity:0.2368"/>
		<stop  offset="0.9507" style="stop-color:#DB302B;stop-opacity:0.0493"/>
		<stop  offset="1" style="stop-color:#E6322D;stop-opacity:0"/>
	</linearGradient>
	<polygon fill="url(#SVGID_2_)" points="64.32,5.978 123.141,39.998 123.141,108.067 64.32,142.104 5.502,108.067 5.502,39.998 	"/>
	<text transform="matrix(1 0 0 1 18.7927 54.3718)" fill="#FEFEFE" font-family="'BerlinSansFB-Reg'" font-size="30">FoReco</text>
	<path fill="#FEFEFE" d="M60.915,111.905c-3.643-5.479-7.819-10.309-12.577-14.909c-1.824-1.767-3.815-4.424-6.061-5.634
		c-2.301-1.24-4.433,1.801-6.874,1.538c-5.502-0.593-4.487-9.032,0.745-9.412c2.163-0.157,4.061,1.17,4.645,3.263
		c0.667,2.391,3.429-3.825,2.895-5.399c-0.823-2.427-3.305-2.741-2.54-5.837c1.124-4.551,7.792-5.13,9.217-0.449
		c0.54,1.771,0.073,3.897-1.42,5.074c-2.183,1.724-2.512,1.961-3.088,4.734c-0.692,3.338-0.87,5.038,1.753,7.684
		c1.938,1.95,3.737,4.088,6.413,4.828c-0.416-3.278-2.99-6.384,0.856-8.87c2.638-1.706,6.602-1.058,7.603,2.239
		c0.941,3.104-0.618,5.682-3.773,6.151c-5.518,0.821,0.347,6.965,1.918,8.997c2.124,2.741,5.449,6.531,7.995,2.04
		c2.565-4.521-3.654-4.545-4.859-7.971c-1.155-3.281,2.253-6.203,5.299-4.497c3.959,2.219-1.131,6.227,2.063,7.928
		c0.662-3.206,3.044-8.511,0.422-11.328c-3.242-3.484-8.305-5.976-12.027-9.021c-1.587-1.301-3.116-2.563-4.21-4.328
		c-0.959-1.551-1.017-4.563-2.509-5.618c-2.686-1.899-7.166-2.854-5.298-7.489c3.535-8.774,16.601,0.57,9.586,6.454
		c-6.3,5.274,10.759,14.014,14.46,15.702c0.056-3.691,0.556-3.521-1.85-6.279c-2.217-2.549-6.295-0.854-7.813-3.878
		c-3.938-7.843,9.9-9.72,8.993-2.229c-0.146,1.214-1.292,2.135-0.851,3.423c0.462,1.354,4.246,3.965,9.247-0.128
		c0.445-1.878,0.588-3.911,2.175-5.236c6.63-5.53,11.472,8.906,2.688,8.388c-1.478-0.088-2.591-1.033-4.093-0.822
		c-1.759,0.247-3.15,1.494-4.719,2.216c-1.923,0.881,0.355,9.215,0.313,11.139c-0.118,5.053,5.606-0.262,7.147-1.28
		c1.418-0.939,3.646-1.812,4.227-3.575c0.553-1.68,0.387-3.431,1.314-5.02c3.783-6.491,13.102,3.765,5.998,7.143
		c-1.548,0.737-3.402,0.173-5.046,0.563c-1.823,0.434-3.452,1.395-4.993,2.424c-3.315,2.21,0.951,5.46,1.838,4.217
		c2.375-3.336,8.133-2.306,8.251,2.165c0.11,4.113-4.213,6.273-7.479,3.792c-1.729-1.313-2.707-4.897-5.349-4.746
		c-2.326,0.136-2.551,0.218-4.547,1.362c-1.587,0.91-3.658,5.235-4.862,6.616c-1.208,1.388-2.941,4.827,0.391,3.113
		c1.118-0.573,2.952-0.938,3.169-2.333c0.282-1.779,1.491-3.264,3.393-3.284c4.074-0.044,5.029,6.078,0.929,6.854
		c-2.624,0.498-3.899-0.371-6.579,0.951c-1.728,0.852-4.514,1.593-4.259,4.046c0.242,2.312,2.967,12.426,0.67,13.753
		c-1.637,0.944-4.839,0.378-6.627,0.26c-2.733-0.185-3.137-1.263-2.523-3.854c0.699-2.95,3.882-9.424,0.947-11.952
		c-1.504-1.296-9.756,0.656-11.349-0.771c-1.317-1.185-2.47-2.547-3.467-4.011c-1.09-1.596-3.793-1.057-5.192-2.589
		c-3.009-3.295,0.122-8.365,4.393-7.289c1.64,0.416,3.178,1.576,3.689,3.242c0.569,1.862-1.6,3.871-0.884,5.162
		C51.021,113.255,56.497,111.923,60.915,111.905z"/>
</g>
</svg>
