<?xml version="1.0" encoding="utf-8"?>
<!-- Generator: Adobe Illustrator 16.0.0, SVG Export Plug-In . SVG Version: 6.00 Build 0)  -->
<!DOCTYPE svg PUBLIC "-//W3C//DTD SVG 1.1//EN" "http://www.w3.org/Graphics/SVG/1.1/DTD/svg11.dtd">
<svg version="1.1" xmlns="http://www.w3.org/2000/svg" xmlns:xlink="http://www.w3.org/1999/xlink" x="0px" y="0px"
	 width="170.08px" height="170.08px" viewBox="0 0 170.08 170.08" enable-background="new 0 0 170.08 170.08" xml:space="preserve">
<g id="Livello_2">
	<polygon fill="#264776" points="85.039,0 158.528,42.506 158.528,127.555 85.039,170.079 11.55,127.555 11.55,42.506 	"/>
	<g>
		<path fill="#FFFFFF" d="M38.989,40.469v4.004H28.678v6.342h7.902v3.933h-7.902v10.453h-4.961V40.469H38.989z"/>
		<path fill="#FFFFFF" d="M46.111,64.262c-1.512-0.838-2.699-2.025-3.561-3.561c-0.863-1.535-1.293-3.307-1.293-5.315
			s0.443-3.779,1.329-5.315s2.096-2.722,3.632-3.562c1.536-0.838,3.248-1.258,5.138-1.258c1.89,0,3.602,0.42,5.138,1.258
			c1.535,0.839,2.747,2.026,3.632,3.562s1.329,3.307,1.329,5.315s-0.455,3.78-1.364,5.315c-0.91,1.536-2.138,2.723-3.685,3.561
			c-1.548,0.838-3.278,1.258-5.191,1.258C49.323,65.52,47.623,65.101,46.111,64.262z M53.747,60.542
			c0.791-0.437,1.423-1.092,1.896-1.967c0.472-0.874,0.708-1.937,0.708-3.189c0-1.866-0.49-3.301-1.47-4.305
			c-0.981-1.003-2.179-1.506-3.597-1.506c-1.417,0-2.604,0.502-3.561,1.506c-0.957,1.004-1.435,2.439-1.435,4.305
			c0,1.866,0.466,3.302,1.399,4.305c0.933,1.004,2.108,1.506,3.526,1.506C52.111,61.197,52.955,60.979,53.747,60.542z"/>
		<path fill="#FFFFFF" d="M77.859,65.201l-5.457-9.638h-2.338v9.638h-4.961V40.469h9.284c1.913,0,3.543,0.337,4.889,1.01
			c1.347,0.673,2.356,1.583,3.029,2.729c0.674,1.146,1.011,2.427,1.011,3.844c0,1.63-0.473,3.101-1.417,4.412
			c-0.945,1.311-2.351,2.214-4.217,2.71l5.917,10.028H77.859z M70.063,51.843h4.146c1.347,0,2.351-0.324,3.012-0.974
			c0.661-0.65,0.992-1.553,0.992-2.711c0-1.134-0.331-2.014-0.992-2.64c-0.662-0.626-1.666-0.939-3.012-0.939h-4.146V51.843z"/>
		<path fill="#FFFFFF" d="M105.921,56.875h-14.35c0.117,1.417,0.614,2.528,1.487,3.331c0.873,0.803,1.949,1.205,3.226,1.205
			c1.842,0,3.153-0.791,3.932-2.374h5.352c-0.567,1.89-1.653,3.443-3.261,4.66c-1.606,1.217-3.579,1.825-5.917,1.825
			c-1.891,0-3.585-0.419-5.085-1.258s-2.669-2.025-3.507-3.561c-0.84-1.535-1.258-3.307-1.258-5.315c0-2.031,0.412-3.814,1.239-5.35
			c0.826-1.536,1.984-2.717,3.472-3.543c1.489-0.827,3.202-1.241,5.139-1.241c1.865,0,3.538,0.402,5.015,1.205
			c1.476,0.803,2.621,1.943,3.437,3.419c0.814,1.477,1.223,3.171,1.223,5.085C106.063,55.67,106.016,56.308,105.921,56.875z
			 M100.925,53.543c-0.023-1.276-0.484-2.297-1.382-3.064c-0.898-0.768-1.996-1.152-3.295-1.152c-1.229,0-2.262,0.372-3.101,1.116
			c-0.839,0.744-1.352,1.778-1.541,3.101H100.925z"/>
		<path fill="#FFFFFF" d="M109.642,50.053c0.826-1.524,1.973-2.704,3.438-3.543c1.465-0.838,3.142-1.258,5.031-1.258
			c2.433,0,4.447,0.608,6.041,1.825c1.595,1.218,2.662,2.923,3.207,5.121h-5.351c-0.283-0.851-0.762-1.518-1.436-2.002
			c-0.672-0.484-1.505-0.727-2.497-0.727c-1.418,0-2.539,0.514-3.366,1.541c-0.827,1.028-1.24,2.487-1.24,4.376
			c0,1.866,0.413,3.313,1.24,4.341c0.827,1.027,1.948,1.541,3.366,1.541c2.007,0,3.317-0.897,3.933-2.693h5.351
			c-0.545,2.126-1.618,3.815-3.226,5.067c-1.605,1.252-3.613,1.878-6.022,1.878c-1.89,0-3.566-0.419-5.031-1.258
			s-2.611-2.02-3.438-3.543c-0.827-1.523-1.24-3.301-1.24-5.333C108.401,53.355,108.814,51.577,109.642,50.053z"/>
		<path fill="#FFFFFF" d="M134.623,64.262c-1.514-0.838-2.699-2.025-3.563-3.561c-0.862-1.535-1.293-3.307-1.293-5.315
			s0.443-3.779,1.329-5.315s2.096-2.722,3.632-3.562c1.534-0.838,3.248-1.258,5.138-1.258s3.604,0.42,5.138,1.258
			c1.536,0.839,2.747,2.026,3.633,3.562s1.329,3.307,1.329,5.315s-0.457,3.78-1.366,5.315c-0.908,1.536-2.139,2.723-3.684,3.561
			c-1.548,0.838-3.278,1.258-5.19,1.258C137.834,65.52,136.134,65.101,134.623,64.262z M142.258,60.542
			c0.792-0.437,1.424-1.092,1.896-1.967c0.471-0.874,0.708-1.937,0.708-3.189c0-1.866-0.491-3.301-1.472-4.305
			c-0.98-1.003-2.178-1.506-3.596-1.506c-1.417,0-2.604,0.502-3.56,1.506c-0.958,1.004-1.437,2.439-1.437,4.305
			c0,1.866,0.468,3.302,1.399,4.305c0.935,1.004,2.108,1.506,3.527,1.506C140.623,61.197,141.467,60.979,142.258,60.542z"/>
	</g>
	<g>
		<path fill="#A5C2DF" d="M77.474,81.158c-0.462-0.526-1.201-0.698-1.897-0.642c-1.1,0.087-2.115-0.237-2.783-0.998
			c-1.331-1.513-0.771-4.184,1.246-5.957c2.016-1.773,4.736-1.985,6.067-0.472c0.669,0.76,0.86,1.808,0.634,2.888
			c-0.146,0.685-0.071,1.44,0.39,1.966c0.644,0.732,1.76,0.804,2.492,0.16l3.246-2.853c1.514-1.331,3.823-1.181,5.15,0.333
			l14.467,16.46c1.331,1.513,1.181,3.819-0.33,5.15l-3.248,2.854c-0.731,0.644-1.85,0.571-2.493-0.159
			c-0.46-0.528-0.534-1.281-0.39-1.966c0.228-1.08,0.037-2.127-0.634-2.889c-1.33-1.513-4.048-1.303-6.067,0.474
			c-2.018,1.769-2.577,4.442-1.247,5.954c0.671,0.763,1.685,1.084,2.784,0.998c0.698-0.055,1.436,0.116,1.897,0.644
			c0.643,0.728,0.57,1.846-0.158,2.489l-6.905,6.067c-1.514,1.329-3.823,1.181-5.152-0.33l-6.067-6.904
			c-0.642-0.733-0.572-1.85,0.16-2.491c0.527-0.464,1.281-0.538,1.966-0.39c1.078,0.224,2.125,0.032,2.887-0.637
			c1.515-1.331,1.302-4.049-0.472-6.069c-1.771-2.017-4.442-2.575-5.957-1.246c-0.761,0.671-1.083,1.687-0.997,2.784
			c0.056,0.697-0.115,1.438-0.641,1.898c-0.731,0.646-1.849,0.572-2.492-0.159l-2.854-3.248c-1.329-1.513-1.181-3.819,0.333-5.153
			l6.904-6.065C78.044,83.006,78.119,81.888,77.474,81.158z"/>
		<g>
			<path fill="#A5C2DF" d="M48.375,112.537c-0.374-0.561-1.06-0.821-1.737-0.856c-1.062-0.058-1.992-0.496-2.534-1.311
				c-1.078-1.619-0.201-4.102,1.955-5.538c2.156-1.442,4.787-1.299,5.865,0.32c0.544,0.814,0.592,1.841,0.238,2.845
				c-0.229,0.639-0.253,1.368,0.122,1.933c0.522,0.782,1.581,0.992,2.363,0.469l3.47-2.312c1.619-1.084,3.809-0.642,4.887,0.976
				l2.315,3.472c0.522,0.782,1.583,0.99,2.364,0.469c0.562-0.374,0.82-1.06,0.854-1.735c0.06-1.065,0.498-1.993,1.312-2.532
				c1.62-1.08,4.102-0.201,5.541,1.951c1.439,2.157,1.293,4.784-0.326,5.864c-0.811,0.542-1.837,0.593-2.842,0.24
				c-0.637-0.229-1.367-0.252-1.93,0.122c-0.782,0.523-0.995,1.58-0.472,2.364l4.921,7.377c1.081,1.62,0.645,3.812-0.976,4.887
				l-3.468,2.318c-0.783,0.519-1.842,0.309-2.365-0.474c-0.374-0.561-0.35-1.292-0.121-1.931c0.354-1.006,0.306-2.032-0.237-2.842
				c-1.08-1.619-3.709-1.765-5.866-0.325c-2.157,1.437-3.035,3.924-1.954,5.541c0.542,0.812,1.471,1.253,2.534,1.311
				c0.677,0.034,1.361,0.293,1.737,0.855c0.521,0.782,0.309,1.839-0.475,2.36l-7.378,4.925c-1.619,1.077-3.809,0.642-4.889-0.979
				L39.548,124.71c-1.081-1.619-0.644-3.809,0.976-4.889l7.378-4.923C48.685,114.378,48.896,113.316,48.375,112.537z"/>
		</g>
		<path fill="#A5C2DF" d="M88.358,129.275c-0.663-0.122-1.325,0.189-1.823,0.65c-0.78,0.722-1.744,1.084-2.703,0.904
			c-1.913-0.351-3.084-2.713-2.614-5.26c0.468-2.549,2.404-4.337,4.317-3.986c0.96,0.178,1.731,0.86,2.206,1.813
			c0.298,0.609,0.806,1.133,1.469,1.257c0.926,0.171,1.814-0.445,1.986-1.367l0.757-4.102c0.352-1.913,2.189-3.177,4.104-2.826
			l4.102,0.754c0.923,0.171,1.813-0.442,1.984-1.363c0.122-0.664-0.188-1.328-0.651-1.827c-0.722-0.779-1.083-1.744-0.906-2.701
			c0.354-1.915,2.714-3.087,5.264-2.616c2.548,0.469,4.334,2.401,3.983,4.318c-0.179,0.962-0.859,1.73-1.81,2.206
			c-0.609,0.297-1.136,0.805-1.259,1.469c-0.17,0.928,0.442,1.813,1.367,1.984l8.724,1.607c1.912,0.355,3.18,2.189,2.828,4.106
			l-0.757,4.102c-0.171,0.925-1.059,1.536-1.984,1.368c-0.665-0.122-1.172-0.65-1.47-1.26c-0.477-0.952-1.246-1.631-2.205-1.809
			c-1.917-0.353-3.851,1.433-4.32,3.981c-0.471,2.55,0.702,4.909,2.615,5.265c0.96,0.173,1.924-0.185,2.704-0.906
			c0.497-0.464,1.159-0.773,1.825-0.653c0.924,0.171,1.535,1.062,1.365,1.986l-1.607,8.723c-0.354,1.914-2.194,3.181-4.105,2.828
			l-8.726-1.608c-0.923-0.171-1.536-1.061-1.364-1.983c0.121-0.665,0.649-1.175,1.256-1.47c0.953-0.473,1.634-1.246,1.81-2.205
			c0.354-1.915-1.433-3.849-3.982-4.321c-2.548-0.468-4.908,0.704-5.26,2.616c-0.178,0.962,0.183,1.924,0.904,2.706
			c0.461,0.498,0.772,1.16,0.649,1.82c-0.171,0.927-1.06,1.538-1.984,1.37l-4.102-0.757c-1.914-0.355-3.179-2.193-2.826-4.106
			l1.607-8.722C89.896,130.336,89.283,129.446,88.358,129.275z"/>
	</g>
	<g>
	</g>
	<g>
	</g>
	<g>
	</g>
	<g>
	</g>
	<g>
	</g>
	<g>
	</g>
</g>
</svg>
