<?xml version="1.0" encoding="utf-8"?>
<!-- Generator: Adobe Illustrator 16.0.0, SVG Export Plug-In . SVG Version: 6.00 Build 0)  -->
<!DOCTYPE svg PUBLIC "-//W3C//DTD SVG 1.1//EN" "http://www.w3.org/Graphics/SVG/1.1/DTD/svg11.dtd">
<svg version="1.1" id="Livello_1" xmlns="http://www.w3.org/2000/svg" xmlns:xlink="http://www.w3.org/1999/xlink" x="0px" y="0px"
	 width="127.561px" height="147.4px" viewBox="0 0 127.561 147.4" enable-background="new 0 0 127.561 147.4" xml:space="preserve">
<g>
	<polygon fill="#311818" points="64.32,2.041 126.542,38.029 126.542,110.035 64.32,146.04 2.101,110.035 2.101,38.029 	"/>
	<polygon fill="#9A2927" points="64.32,5.978 123.141,39.998 123.141,108.067 64.32,142.104 5.502,108.067 5.502,39.998 	"/>
	
		<linearGradient id="SVGID_1_" gradientUnits="userSpaceOnUse" x1="-94.0496" y1="813.741" x2="-186.9042" y2="720.8862" gradientTransform="matrix(1 0 0 1 204.7998 -693.2793)">
		<stop  offset="0" style="stop-color:#E6322D"/>
		<stop  offset="1" style="stop-color:#E6322D;stop-opacity:0"/>
	</linearGradient>
	<polygon fill="url(#SVGID_1_)" points="64.32,5.978 123.141,39.998 123.141,108.067 64.32,142.104 5.502,108.067 5.502,39.998 	"/>
	
		<linearGradient id="SVGID_2_" gradientUnits="userSpaceOnUse" x1="-199.3342" y1="733.3416" x2="-81.6301" y2="801.2982" gradientTransform="matrix(1 0 0 1 204.7998 -693.2793)">
		<stop  offset="0" style="stop-color:#8F1D18"/>
		<stop  offset="0.193" style="stop-color:#921E19;stop-opacity:0.807"/>
		<stop  offset="0.3838" style="stop-color:#9B211C;stop-opacity:0.6162"/>
		<stop  offset="0.5737" style="stop-color:#A92521;stop-opacity:0.4263"/>
		<stop  offset="0.7632" style="stop-color:#BF2A26;stop-opacity:0.2368"/>
		<stop  offset="0.9507" style="stop-color:#DB302B;stop-opacity:0.0493"/>
		<stop  offset="1" style="stop-color:#E6322D;stop-opacity:0"/>
	</linearGradient>
	<polygon fill="url(#SVGID_2_)" points="64.32,5.978 123.141,39.998 123.141,108.067 64.32,142.104 5.502,108.067 5.502,39.998 	"/>
	<g enable-background="new    ">
		<path fill="#FEFEFE" d="M37.418,35.823c0,0.186-0.103,0.278-0.308,0.278c-0.762,0-2.012-0.044-3.75-0.132
			c-1.621-0.078-2.871-0.107-3.75-0.088l-1.069,0.015c-0.684,0.01-1.045,0.024-1.084,0.044c-0.195,0.078-0.293,0.386-0.293,0.923
			v3.53c0,0.664,0.142,0.996,0.425,0.996c0.947,0,2.375-0.044,4.285-0.132s3.337-0.132,4.285-0.132c0.205,0,0.308,0.078,0.308,0.234
			c0,0.166-0.012,0.413-0.037,0.74s-0.037,0.573-0.037,0.739c0,0.176,0.01,0.442,0.029,0.798c0.02,0.357,0.029,0.623,0.029,0.799
			c0,0.117-0.103,0.176-0.308,0.176c-0.674,0-1.697-0.02-3.069-0.059s-2.4-0.059-3.083-0.059c-1.26,0-1.973,0.01-2.139,0.029
			c-0.439,0.049-0.659,0.229-0.659,0.542c0,0.879,0.024,2.197,0.073,3.955s0.073,3.076,0.073,3.955c0,0.293-0.117,0.439-0.352,0.439
			c-0.195,0-0.486-0.022-0.872-0.065c-0.386-0.045-0.681-0.066-0.886-0.066c-0.166,0-0.42,0.015-0.762,0.044
			s-0.596,0.044-0.762,0.044c-0.244,0-0.366-0.107-0.366-0.322c0-1.084,0.046-2.715,0.139-4.893s0.139-3.809,0.139-4.893
			c0-1.006-0.103-4.277-0.308-9.814v-0.19c-0.01-0.205,0.112-0.322,0.366-0.352c0.078,0,0.698,0.015,1.86,0.044
			c1.533,0.029,2.954,0.034,4.263,0.015c1.768-0.02,4.019-0.117,6.753-0.293c0.371-0.029,0.581,0.132,0.63,0.483
			c-0.01,0.264,0.01,0.664,0.059,1.201C37.359,35.11,37.418,35.598,37.418,35.823z"/>
		<path fill="#FEFEFE" d="M52.579,46.238c0,2.041-0.669,3.784-2.007,5.229c-1.367,1.494-3.062,2.241-5.083,2.241
			c-2.031,0-3.73-0.742-5.098-2.227c-1.338-1.436-2.007-3.174-2.007-5.215s0.669-3.779,2.007-5.215
			c1.377-1.465,3.076-2.197,5.098-2.197c2.012,0,3.701,0.732,5.068,2.197C51.905,42.478,52.579,44.207,52.579,46.238z
			 M49.488,46.267c0-1.191-0.366-2.207-1.099-3.047c-0.762-0.889-1.729-1.333-2.9-1.333s-2.144,0.439-2.915,1.318
			c-0.732,0.85-1.099,1.87-1.099,3.062c0,1.172,0.371,2.188,1.113,3.047c0.781,0.908,1.748,1.362,2.9,1.362
			c1.162,0,2.129-0.454,2.9-1.362C49.122,48.455,49.488,47.439,49.488,46.267z"/>
		<path fill="#FEFEFE" d="M70.509,53.255c0,0.078-0.078,0.117-0.234,0.117c-0.186,0-0.469-0.015-0.85-0.044s-0.664-0.044-0.85-0.044
			c-0.205,0-0.511,0.015-0.916,0.044s-0.711,0.044-0.916,0.044c-0.225,0-0.395-0.122-0.512-0.366
			c-0.313-0.664-1.201-2.72-2.667-6.167c-0.146-0.352-0.503-0.566-1.069-0.645c-0.127-0.01-0.571-0.015-1.333-0.015
			c-1.348,0-2.148,0.02-2.402,0.059c-0.205,0.029-0.308,0.278-0.308,0.747c0,0.684,0.032,1.707,0.095,3.068
			c0.063,1.363,0.095,2.381,0.095,3.055c0,0.205-0.098,0.308-0.293,0.308s-0.491-0.022-0.886-0.065
			c-0.396-0.045-0.696-0.066-0.901-0.066c-0.166,0-0.42,0.015-0.762,0.044s-0.596,0.044-0.762,0.044
			c-0.244,0-0.366-0.112-0.366-0.337c0-1.084,0.051-2.712,0.154-4.886c0.103-2.172,0.154-3.801,0.154-4.885
			c0-3.086-0.112-6.377-0.337-9.873l-0.015-0.234c-0.01-0.195,0.195-0.293,0.615-0.293c0.84,0,2.097-0.021,3.772-0.066
			c1.675-0.043,2.927-0.065,3.757-0.065c2.168,0,3.907,0.518,5.215,1.553c1.445,1.143,2.168,2.764,2.168,4.863
			c0,1.445-0.195,2.583-0.586,3.413c-0.41,0.879-1.172,1.714-2.285,2.505c-0.186,0.127-0.279,0.249-0.279,0.366
			c0,0.137,0.584,1.436,1.751,3.896S70.509,53.098,70.509,53.255z M66.495,39.969c0-1.768-0.508-2.949-1.523-3.545
			c-0.752-0.439-2.105-0.659-4.058-0.659c-1.582,0-2.388,0.127-2.417,0.381c-0.068,0.527-0.103,1.938-0.103,4.233v2.798
			c0.029,0.02,0.093,0.039,0.19,0.059c0.176,0.02,0.464,0.044,0.864,0.073c0.928,0.049,1.929,0.073,3.003,0.073
			C65.148,43.382,66.495,42.244,66.495,39.969z"/>
		<path fill="#FEFEFE" d="M84.878,45.506c0,0.723-0.313,1.206-0.938,1.45c-0.42,0.156-3.441,0.444-9.066,0.864
			c0.127,0.859,0.6,1.592,1.42,2.197c0.781,0.576,1.621,0.864,2.52,0.864c1.543,0,2.959-0.498,4.248-1.494
			c0.156-0.127,0.313-0.254,0.469-0.381c0.078,0,0.13,0.01,0.154,0.029s0.207,0.359,0.549,1.018c0.342,0.66,0.514,1.014,0.514,1.063
			c0,0.059-0.078,0.171-0.234,0.337c-1.436,1.523-3.277,2.285-5.523,2.285c-2.266,0-4.072-0.676-5.42-2.028
			s-2.021-3.157-2.021-5.413c0-2.012,0.645-3.765,1.934-5.259c1.357-1.553,3.023-2.329,4.996-2.329c1.836,0,3.369,0.674,4.6,2.021
			C84.279,42.039,84.878,43.631,84.878,45.506z M81.392,44.612c0-0.811-0.319-1.528-0.959-2.153s-1.359-0.938-2.16-0.938
			c-0.898,0-1.697,0.361-2.396,1.084s-1.048,1.533-1.048,2.432c0,0.205,0.176,0.308,0.527,0.308c1.445,0,3.174-0.146,5.186-0.439
			C81.109,44.827,81.392,44.729,81.392,44.612z"/>
		<path fill="#FEFEFE" d="M97.154,40.086c0,0.215-0.111,0.693-0.336,1.436s-0.381,1.113-0.469,1.113
			c-0.439-0.195-0.882-0.391-1.326-0.586s-0.93-0.293-1.457-0.293c-1.201,0-2.203,0.444-3.004,1.333s-1.201,1.938-1.201,3.149
			c0,1.191,0.4,2.222,1.201,3.091c0.82,0.898,1.822,1.348,3.004,1.348c0.654,0,1.299-0.161,1.934-0.483s0.912-0.483,0.834-0.483
			c0.127,0,0.27,0.41,0.426,1.23c0.146,0.742,0.219,1.255,0.219,1.538c0,0.303-0.57,0.601-1.713,0.894
			c-0.957,0.244-1.666,0.366-2.125,0.366c-2.012,0-3.711-0.752-5.098-2.256c-1.357-1.465-2.035-3.213-2.035-5.244
			c0-2.07,0.664-3.828,1.992-5.273c1.367-1.484,3.07-2.227,5.111-2.227c1.367,0,2.617,0.347,3.75,1.04
			C97.056,39.895,97.154,39.998,97.154,40.086z"/>
		<path fill="#FEFEFE" d="M112.257,46.238c0,2.041-0.67,3.784-2.008,5.229c-1.367,1.494-3.061,2.241-5.082,2.241
			c-2.031,0-3.73-0.742-5.098-2.227c-1.338-1.436-2.008-3.174-2.008-5.215s0.67-3.779,2.008-5.215
			c1.377-1.465,3.076-2.197,5.098-2.197c2.012,0,3.701,0.732,5.068,2.197C111.583,42.478,112.257,44.207,112.257,46.238z
			 M109.165,46.267c0-1.191-0.365-2.207-1.098-3.047c-0.762-0.889-1.729-1.333-2.9-1.333s-2.145,0.439-2.916,1.318
			c-0.732,0.85-1.098,1.87-1.098,3.062c0,1.172,0.371,2.188,1.113,3.047c0.781,0.908,1.748,1.362,2.9,1.362
			c1.162,0,2.129-0.454,2.9-1.362C108.8,48.455,109.165,47.439,109.165,46.267z"/>
	</g>
	<path fill="#FEFEFE" d="M60.915,111.905c-3.644-5.479-7.819-10.309-12.577-14.909c-1.824-1.767-3.815-4.424-6.062-5.634
		c-2.301-1.24-4.433,1.801-6.874,1.538c-5.502-0.593-4.486-9.032,0.745-9.412c2.163-0.157,4.062,1.17,4.646,3.263
		c0.667,2.392,3.429-3.825,2.895-5.398c-0.823-2.428-3.305-2.741-2.54-5.837c1.124-4.552,7.792-5.131,9.217-0.449
		c0.54,1.771,0.073,3.896-1.42,5.074c-2.183,1.724-2.512,1.961-3.088,4.733c-0.691,3.338-0.87,5.038,1.753,7.685
		c1.938,1.949,3.737,4.088,6.413,4.827c-0.416-3.277-2.989-6.384,0.856-8.869c2.638-1.706,6.602-1.059,7.603,2.238
		c0.941,3.104-0.618,5.683-3.772,6.151c-5.519,0.821,0.347,6.965,1.918,8.997c2.124,2.741,5.449,6.531,7.995,2.04
		c2.564-4.521-3.654-4.545-4.859-7.971c-1.155-3.281,2.253-6.203,5.299-4.497c3.959,2.219-1.131,6.227,2.063,7.928
		c0.662-3.206,3.044-8.511,0.422-11.328c-3.242-3.484-8.305-5.976-12.027-9.021c-1.587-1.302-3.116-2.563-4.21-4.328
		c-0.959-1.552-1.017-4.563-2.509-5.618c-2.687-1.899-7.166-2.854-5.298-7.489c3.535-8.774,16.601,0.57,9.586,6.454
		c-6.3,5.274,10.759,14.014,14.46,15.702c0.056-3.691,0.556-3.521-1.85-6.279c-2.218-2.549-6.296-0.854-7.813-3.878
		c-3.938-7.843,9.9-9.72,8.993-2.229c-0.146,1.214-1.292,2.135-0.852,3.423c0.462,1.354,4.246,3.965,9.247-0.128
		c0.445-1.878,0.588-3.911,2.176-5.236c6.63-5.53,11.472,8.906,2.688,8.388c-1.478-0.088-2.591-1.033-4.093-0.821
		c-1.759,0.246-3.15,1.493-4.719,2.216c-1.924,0.881,0.354,9.215,0.313,11.139c-0.118,5.053,5.606-0.262,7.147-1.28
		c1.418-0.938,3.646-1.812,4.227-3.574c0.553-1.681,0.387-3.432,1.314-5.021c3.782-6.491,13.102,3.765,5.998,7.144
		c-1.549,0.736-3.402,0.173-5.047,0.563c-1.822,0.434-3.451,1.396-4.992,2.424c-3.315,2.21,0.95,5.46,1.838,4.217
		c2.375-3.336,8.133-2.306,8.251,2.165c0.109,4.113-4.213,6.273-7.479,3.792c-1.729-1.313-2.707-4.896-5.349-4.746
		c-2.326,0.137-2.551,0.219-4.547,1.362c-1.587,0.91-3.658,5.235-4.862,6.616c-1.208,1.388-2.941,4.827,0.391,3.113
		c1.118-0.573,2.952-0.938,3.17-2.333c0.281-1.779,1.49-3.265,3.393-3.284c4.074-0.044,5.029,6.078,0.929,6.854
		c-2.624,0.498-3.898-0.371-6.579,0.951c-1.728,0.853-4.514,1.593-4.259,4.046c0.242,2.313,2.967,12.426,0.67,13.753
		c-1.637,0.944-4.839,0.378-6.627,0.261c-2.732-0.186-3.137-1.264-2.522-3.854c0.698-2.95,3.882-9.424,0.946-11.952
		c-1.504-1.296-9.756,0.656-11.349-0.771c-1.317-1.186-2.47-2.547-3.467-4.012c-1.09-1.596-3.793-1.057-5.192-2.589
		c-3.009-3.295,0.122-8.364,4.394-7.289c1.64,0.416,3.178,1.576,3.688,3.242c0.569,1.862-1.6,3.871-0.884,5.162
		C51.021,113.255,56.497,111.923,60.915,111.905z"/>
</g>
</svg>
