<?xml version="1.0" encoding="UTF-8" standalone="no"?>
<!-- Generator: Adobe Illustrator 16.0.0, SVG Export Plug-In . SVG Version: 6.00 Build 0)  -->

<svg
   version="1.1"
   x="0px"
   y="0px"
   width="1.73in"
   height="2in"
   viewBox="0 0 166.08 192"
   enable-background="new 0 0 170.08 170.08"
   xml:space="preserve"
   id="svg30"
   sodipodi:docname="foreco.svg"
   inkscape:version="1.4.2 (ebf0e940, 2025-05-08)"
   xmlns:inkscape="http://www.inkscape.org/namespaces/inkscape"
   xmlns:sodipodi="http://sodipodi.sourceforge.net/DTD/sodipodi-0.dtd"
   xmlns="http://www.w3.org/2000/svg"
   xmlns:svg="http://www.w3.org/2000/svg"><defs
   id="defs30" /><sodipodi:namedview
   id="namedview30"
   pagecolor="#ffffff"
   bordercolor="#000000"
   borderopacity="0.25"
   inkscape:showpageshadow="2"
   inkscape:pageopacity="0.0"
   inkscape:pagecheckerboard="0"
   inkscape:deskcolor="#d1d1d1"
   inkscape:zoom="3.278703"
   inkscape:cx="60.847231"
   inkscape:cy="133.28441"
   inkscape:current-layer="svg30"
   inkscape:document-units="in" />

<g
   id="Livello_2"
   transform="matrix(1.1288872,0,0,1.1288872,-12.959438,-3.0444e-6)"
   style="display:inline"
   inkscape:label="foreco">
	<polygon
   fill="#264776"
   points="85.039,0 158.528,42.506 158.528,127.555 85.039,170.079 11.55,127.555 11.55,42.506 "
   id="polygon12"
   style="display:inline"
   inkscape:label="hex" />
	<g
   id="g18"
   style="display:inline"
   inkscape:label="text">
		<path
   fill="#fefefe"
   d="m 38.989,40.469 v 4.004 H 28.678 v 6.342 h 7.902 v 3.933 H 28.678 V 65.201 H 23.717 V 40.469 Z"
   id="path13" />
		<path
   fill="#fefefe"
   d="m 46.111,64.262 c -1.512,-0.838 -2.699,-2.025 -3.561,-3.561 -0.863,-1.535 -1.293,-3.307 -1.293,-5.315 0,-2.008 0.443,-3.779 1.329,-5.315 0.886,-1.536 2.096,-2.722 3.632,-3.562 1.536,-0.838 3.248,-1.258 5.138,-1.258 1.89,0 3.602,0.42 5.138,1.258 1.535,0.839 2.747,2.026 3.632,3.562 0.885,1.536 1.329,3.307 1.329,5.315 0,2.008 -0.455,3.78 -1.364,5.315 -0.91,1.536 -2.138,2.723 -3.685,3.561 -1.548,0.838 -3.278,1.258 -5.191,1.258 -1.892,0 -3.592,-0.419 -5.104,-1.258 z m 7.636,-3.72 c 0.791,-0.437 1.423,-1.092 1.896,-1.967 0.472,-0.874 0.708,-1.937 0.708,-3.189 0,-1.866 -0.49,-3.301 -1.47,-4.305 -0.981,-1.003 -2.179,-1.506 -3.597,-1.506 -1.417,0 -2.604,0.502 -3.561,1.506 -0.957,1.004 -1.435,2.439 -1.435,4.305 0,1.866 0.466,3.302 1.399,4.305 0.933,1.004 2.108,1.506 3.526,1.506 0.898,0 1.742,-0.218 2.534,-0.655 z"
   id="path14" />
		<path
   fill="#fefefe"
   d="m 77.859,65.201 -5.457,-9.638 h -2.338 v 9.638 H 65.103 V 40.469 h 9.284 c 1.913,0 3.543,0.337 4.889,1.01 1.347,0.673 2.356,1.583 3.029,2.729 0.674,1.146 1.011,2.427 1.011,3.844 0,1.63 -0.473,3.101 -1.417,4.412 -0.945,1.311 -2.351,2.214 -4.217,2.71 l 5.917,10.028 h -5.74 z M 70.063,51.843 h 4.146 c 1.347,0 2.351,-0.324 3.012,-0.974 0.661,-0.65 0.992,-1.553 0.992,-2.711 0,-1.134 -0.331,-2.014 -0.992,-2.64 -0.662,-0.626 -1.666,-0.939 -3.012,-0.939 h -4.146 z"
   id="path15" />
		<path
   fill="#fefefe"
   d="m 105.921,56.875 h -14.35 c 0.117,1.417 0.614,2.528 1.487,3.331 0.873,0.803 1.949,1.205 3.226,1.205 1.842,0 3.153,-0.791 3.932,-2.374 h 5.352 c -0.567,1.89 -1.653,3.443 -3.261,4.66 -1.606,1.217 -3.579,1.825 -5.917,1.825 -1.891,0 -3.585,-0.419 -5.085,-1.258 -1.5,-0.839 -2.669,-2.025 -3.507,-3.561 -0.84,-1.535 -1.258,-3.307 -1.258,-5.315 0,-2.031 0.412,-3.814 1.239,-5.35 0.826,-1.536 1.984,-2.717 3.472,-3.543 1.489,-0.827 3.202,-1.241 5.139,-1.241 1.865,0 3.538,0.402 5.015,1.205 1.476,0.803 2.621,1.943 3.437,3.419 0.814,1.477 1.223,3.171 1.223,5.085 -0.002,0.707 -0.049,1.345 -0.144,1.912 z m -4.996,-3.332 c -0.023,-1.276 -0.484,-2.297 -1.382,-3.064 -0.898,-0.768 -1.996,-1.152 -3.295,-1.152 -1.229,0 -2.262,0.372 -3.101,1.116 -0.839,0.744 -1.352,1.778 -1.541,3.101 h 9.319 z"
   id="path16" />
		<path
   fill="#fefefe"
   d="m 109.642,50.053 c 0.826,-1.524 1.973,-2.704 3.438,-3.543 1.465,-0.838 3.142,-1.258 5.031,-1.258 2.433,0 4.447,0.608 6.041,1.825 1.595,1.218 2.662,2.923 3.207,5.121 h -5.351 c -0.283,-0.851 -0.762,-1.518 -1.436,-2.002 -0.672,-0.484 -1.505,-0.727 -2.497,-0.727 -1.418,0 -2.539,0.514 -3.366,1.541 -0.827,1.028 -1.24,2.487 -1.24,4.376 0,1.866 0.413,3.313 1.24,4.341 0.827,1.027 1.948,1.541 3.366,1.541 2.007,0 3.317,-0.897 3.933,-2.693 h 5.351 c -0.545,2.126 -1.618,3.815 -3.226,5.067 -1.605,1.252 -3.613,1.878 -6.022,1.878 -1.89,0 -3.566,-0.419 -5.031,-1.258 -1.465,-0.839 -2.611,-2.02 -3.438,-3.543 -0.827,-1.523 -1.24,-3.301 -1.24,-5.333 -0.001,-2.031 0.412,-3.809 1.24,-5.333 z"
   id="path17" />
		<path
   fill="#fefefe"
   d="m 134.623,64.262 c -1.514,-0.838 -2.699,-2.025 -3.563,-3.561 -0.862,-1.535 -1.293,-3.307 -1.293,-5.315 0,-2.008 0.443,-3.779 1.329,-5.315 0.886,-1.536 2.096,-2.722 3.632,-3.562 1.534,-0.838 3.248,-1.258 5.138,-1.258 1.89,0 3.604,0.42 5.138,1.258 1.536,0.839 2.747,2.026 3.633,3.562 0.886,1.536 1.329,3.307 1.329,5.315 0,2.008 -0.457,3.78 -1.366,5.315 -0.908,1.536 -2.139,2.723 -3.684,3.561 -1.548,0.838 -3.278,1.258 -5.19,1.258 -1.892,0 -3.592,-0.419 -5.103,-1.258 z m 7.635,-3.72 c 0.792,-0.437 1.424,-1.092 1.896,-1.967 0.471,-0.874 0.708,-1.937 0.708,-3.189 0,-1.866 -0.491,-3.301 -1.472,-4.305 -0.98,-1.003 -2.178,-1.506 -3.596,-1.506 -1.417,0 -2.604,0.502 -3.56,1.506 -0.958,1.004 -1.437,2.439 -1.437,4.305 0,1.866 0.468,3.302 1.399,4.305 0.935,1.004 2.108,1.506 3.527,1.506 0.9,0 1.744,-0.218 2.535,-0.655 z"
   id="path18" />
	</g>
	<g
   id="g24"
   inkscape:label="icon">
		<path
   fill="#a5c2df"
   d="m 77.474,81.158 c -0.462,-0.526 -1.201,-0.698 -1.897,-0.642 -1.1,0.087 -2.115,-0.237 -2.783,-0.998 -1.331,-1.513 -0.771,-4.184 1.246,-5.957 2.016,-1.773 4.736,-1.985 6.067,-0.472 0.669,0.76 0.86,1.808 0.634,2.888 -0.146,0.685 -0.071,1.44 0.39,1.966 0.644,0.732 1.76,0.804 2.492,0.16 l 3.246,-2.853 c 1.514,-1.331 3.823,-1.181 5.15,0.333 l 14.467,16.46 c 1.331,1.513 1.181,3.819 -0.33,5.15 l -3.248,2.854 c -0.731,0.644 -1.85,0.571 -2.493,-0.159 -0.46,-0.528 -0.534,-1.281 -0.39,-1.966 0.228,-1.08 0.037,-2.127 -0.634,-2.889 -1.33,-1.513 -4.048,-1.303 -6.067,0.474 -2.018,1.769 -2.577,4.442 -1.247,5.954 0.671,0.763 1.685,1.084 2.784,0.998 0.698,-0.055 1.436,0.116 1.897,0.644 0.643,0.728 0.57,1.846 -0.158,2.489 l -6.905,6.067 c -1.514,1.329 -3.823,1.181 -5.152,-0.33 l -6.067,-6.904 c -0.642,-0.733 -0.572,-1.85 0.16,-2.491 0.527,-0.464 1.281,-0.538 1.966,-0.39 1.078,0.224 2.125,0.032 2.887,-0.637 1.515,-1.331 1.302,-4.049 -0.472,-6.069 -1.771,-2.017 -4.442,-2.575 -5.957,-1.246 -0.761,0.671 -1.083,1.687 -0.997,2.784 0.056,0.697 -0.115,1.438 -0.641,1.898 -0.731,0.646 -1.849,0.572 -2.492,-0.159 l -2.854,-3.248 c -1.329,-1.513 -1.181,-3.819 0.333,-5.153 l 6.904,-6.065 c 0.731,-0.643 0.806,-1.761 0.161,-2.491 z"
   id="path19" />
		
		<path
   fill="#a5c2df"
   d="m 48.375,112.537 c -0.374,-0.561 -1.06,-0.821 -1.737,-0.856 -1.062,-0.058 -1.992,-0.496 -2.534,-1.311 -1.078,-1.619 -0.201,-4.102 1.955,-5.538 2.156,-1.442 4.787,-1.299 5.865,0.32 0.544,0.814 0.592,1.841 0.238,2.845 -0.229,0.639 -0.253,1.368 0.122,1.933 0.522,0.782 1.581,0.992 2.363,0.469 l 3.47,-2.312 c 1.619,-1.084 3.809,-0.642 4.887,0.976 l 2.315,3.472 c 0.522,0.782 1.583,0.99 2.364,0.469 0.562,-0.374 0.82,-1.06 0.854,-1.735 0.06,-1.065 0.498,-1.993 1.312,-2.532 1.62,-1.08 4.102,-0.201 5.541,1.951 1.439,2.157 1.293,4.784 -0.326,5.864 -0.811,0.542 -1.837,0.593 -2.842,0.24 -0.637,-0.229 -1.367,-0.252 -1.93,0.122 -0.782,0.523 -0.995,1.58 -0.472,2.364 l 4.921,7.377 c 1.081,1.62 0.645,3.812 -0.976,4.887 l -3.468,2.318 c -0.783,0.519 -1.842,0.309 -2.365,-0.474 -0.374,-0.561 -0.35,-1.292 -0.121,-1.931 0.354,-1.006 0.306,-2.032 -0.237,-2.842 -1.08,-1.619 -3.709,-1.765 -5.866,-0.325 -2.157,1.437 -3.035,3.924 -1.954,5.541 0.542,0.812 1.471,1.253 2.534,1.311 0.677,0.034 1.361,0.293 1.737,0.855 0.521,0.782 0.309,1.839 -0.475,2.36 l -7.378,4.925 c -1.619,1.077 -3.809,0.642 -4.889,-0.979 L 39.548,124.71 c -1.081,-1.619 -0.644,-3.809 0.976,-4.889 l 7.378,-4.923 c 0.783,-0.52 0.994,-1.582 0.473,-2.361 z"
   id="path20"
   style="display:inline" /><path
   fill="#a5c2df"
   d="m 88.358,129.275 c -0.663,-0.122 -1.325,0.189 -1.823,0.65 -0.78,0.722 -1.744,1.084 -2.703,0.904 -1.913,-0.351 -3.084,-2.713 -2.614,-5.26 0.468,-2.549 2.404,-4.337 4.317,-3.986 0.96,0.178 1.731,0.86 2.206,1.813 0.298,0.609 0.806,1.133 1.469,1.257 0.926,0.171 1.814,-0.445 1.986,-1.367 l 0.757,-4.102 c 0.352,-1.913 2.189,-3.177 4.104,-2.826 l 4.102,0.754 c 0.923,0.171 1.813,-0.442 1.984,-1.363 0.122,-0.664 -0.188,-1.328 -0.651,-1.827 -0.722,-0.779 -1.083,-1.744 -0.906,-2.701 0.354,-1.915 2.714,-3.087 5.264,-2.616 2.548,0.469 4.334,2.401 3.983,4.318 -0.179,0.962 -0.859,1.73 -1.81,2.206 -0.609,0.297 -1.136,0.805 -1.259,1.469 -0.17,0.928 0.442,1.813 1.367,1.984 l 8.724,1.607 c 1.912,0.355 3.18,2.189 2.828,4.106 l -0.757,4.102 c -0.171,0.925 -1.059,1.536 -1.984,1.368 -0.665,-0.122 -1.172,-0.65 -1.47,-1.26 -0.477,-0.952 -1.246,-1.631 -2.205,-1.809 -1.917,-0.353 -3.851,1.433 -4.32,3.981 -0.471,2.55 0.702,4.909 2.615,5.265 0.96,0.173 1.924,-0.185 2.704,-0.906 0.497,-0.464 1.159,-0.773 1.825,-0.653 0.924,0.171 1.535,1.062 1.365,1.986 l -1.607,8.723 c -0.354,1.914 -2.194,3.181 -4.105,2.828 l -8.726,-1.608 c -0.923,-0.171 -1.536,-1.061 -1.364,-1.983 0.121,-0.665 0.649,-1.175 1.256,-1.47 0.953,-0.473 1.634,-1.246 1.81,-2.205 0.354,-1.915 -1.433,-3.849 -3.982,-4.321 -2.548,-0.468 -4.908,0.704 -5.26,2.616 -0.178,0.962 0.183,1.924 0.904,2.706 0.461,0.498 0.772,1.16 0.649,1.82 -0.171,0.927 -1.06,1.538 -1.984,1.37 l -4.102,-0.757 c -1.914,-0.355 -3.179,-2.193 -2.826,-4.106 l 1.607,-8.722 c 0.17,-0.924 -0.443,-1.814 -1.368,-1.985 z"
   id="path21"
   style="display:inline" />
		
		
		
	</g>
	
	
	
	
	
	
</g>
</svg>
