<?xml version="1.0" encoding="utf-8"?>
<!-- Generator: Adobe Illustrator 16.0.0, SVG Export Plug-In . SVG Version: 6.00 Build 0)  -->
<!DOCTYPE svg PUBLIC "-//W3C//DTD SVG 1.1//EN" "http://www.w3.org/Graphics/SVG/1.1/DTD/svg11.dtd">
<svg version="1.1" xmlns="http://www.w3.org/2000/svg" xmlns:xlink="http://www.w3.org/1999/xlink" x="0px" y="0px"
	 width="170.08px" height="170.08px" viewBox="0 0 170.08 170.08" enable-background="new 0 0 170.08 170.08" xml:space="preserve">
<g id="Livello_1" display="none">
	<polygon display="inline" fill="#264776" points="85.039,13.04 147.26,49.028 147.26,121.035 85.039,157.039 22.819,121.035 
		22.819,49.028 	"/>
	<g display="inline">
		<path fill="#E2E2E4" d="M46.05,47.303v3.39h-8.73v5.37h6.69v3.33h-6.69v8.85h-4.2v-20.94H46.05z"/>
		<path fill="#E2E2E4" d="M52.08,67.448c-1.28-0.71-2.285-1.715-3.015-3.015c-0.73-1.3-1.095-2.8-1.095-4.5
			c0-1.7,0.375-3.2,1.125-4.5c0.75-1.3,1.775-2.305,3.075-3.015c1.3-0.709,2.75-1.065,4.35-1.065s3.05,0.355,4.35,1.065
			c1.3,0.71,2.325,1.715,3.075,3.015c0.75,1.3,1.125,2.8,1.125,4.5c0,1.7-0.385,3.2-1.155,4.5c-0.77,1.3-1.81,2.305-3.12,3.015
			c-1.311,0.71-2.775,1.065-4.395,1.065C54.8,68.513,53.36,68.158,52.08,67.448z M58.545,64.298c0.669-0.37,1.205-0.925,1.605-1.665
			c0.399-0.74,0.6-1.64,0.6-2.7c0-1.58-0.415-2.794-1.245-3.645c-0.831-0.85-1.845-1.275-3.045-1.275
			c-1.2,0-2.205,0.425-3.015,1.275c-0.81,0.851-1.215,2.065-1.215,3.645c0,1.58,0.395,2.795,1.185,3.645
			c0.79,0.851,1.785,1.275,2.985,1.275C57.16,64.853,57.875,64.668,58.545,64.298z"/>
		<path fill="#E2E2E4" d="M78.96,68.243l-4.62-8.16h-1.98v8.16h-4.2v-20.94h7.86c1.62,0,3,0.285,4.14,0.855
			c1.14,0.57,1.995,1.34,2.565,2.31c0.57,0.97,0.855,2.055,0.855,3.255c0,1.38-0.4,2.625-1.2,3.735c-0.8,1.11-1.99,1.875-3.57,2.295
			l5.01,8.49H78.96z M72.36,56.933h3.51c1.14,0,1.99-0.274,2.55-0.825c0.56-0.55,0.84-1.315,0.84-2.295
			c0-0.96-0.28-1.705-0.84-2.235c-0.56-0.53-1.41-0.795-2.55-0.795h-3.51V56.933z"/>
		<path fill="#E2E2E4" d="M102.72,61.193H90.57c0.1,1.2,0.52,2.14,1.26,2.82c0.739,0.68,1.65,1.02,2.73,1.02
			c1.559,0,2.67-0.67,3.329-2.01h4.53c-0.48,1.601-1.4,2.916-2.76,3.945c-1.361,1.03-3.03,1.545-5.01,1.545
			c-1.602,0-3.035-0.355-4.306-1.065s-2.261-1.715-2.97-3.015c-0.711-1.3-1.064-2.8-1.064-4.5c0-1.72,0.35-3.229,1.049-4.53
			c0.7-1.3,1.681-2.3,2.94-3c1.261-0.7,2.71-1.05,4.351-1.05c1.579,0,2.994,0.34,4.244,1.02c1.25,0.68,2.221,1.646,2.91,2.895
			c0.689,1.25,1.035,2.685,1.035,4.305C102.84,60.173,102.799,60.713,102.72,61.193z M98.49,58.373
			c-0.021-1.08-0.41-1.945-1.17-2.595c-0.761-0.65-1.691-0.975-2.791-0.975c-1.039,0-1.914,0.315-2.625,0.945
			c-0.709,0.63-1.145,1.505-1.305,2.625H98.49z"/>
		<path fill="#E2E2E4" d="M105.869,55.418c0.7-1.29,1.67-2.29,2.91-3c1.24-0.709,2.66-1.065,4.26-1.065
			c2.061,0,3.766,0.515,5.115,1.545c1.35,1.031,2.255,2.475,2.715,4.335h-4.529c-0.24-0.72-0.645-1.285-1.215-1.695
			c-0.57-0.41-1.275-0.615-2.115-0.615c-1.2,0-2.15,0.435-2.85,1.305c-0.701,0.87-1.051,2.105-1.051,3.705
			c0,1.58,0.35,2.805,1.051,3.675c0.699,0.87,1.649,1.305,2.85,1.305c1.699,0,2.81-0.76,3.33-2.28h4.529
			c-0.46,1.8-1.369,3.23-2.729,4.29s-3.06,1.59-5.101,1.59c-1.6,0-3.02-0.355-4.26-1.065s-2.21-1.71-2.91-3
			c-0.699-1.29-1.049-2.795-1.049-4.515C104.82,58.213,105.17,56.708,105.869,55.418z"/>
		<path fill="#E2E2E4" d="M127.02,67.448c-1.281-0.71-2.285-1.715-3.016-3.015c-0.73-1.3-1.095-2.8-1.095-4.5
			c0-1.7,0.375-3.2,1.125-4.5c0.75-1.3,1.774-2.305,3.075-3.015c1.299-0.709,2.75-1.065,4.35-1.065s3.051,0.355,4.35,1.065
			c1.301,0.71,2.326,1.715,3.076,3.015c0.75,1.3,1.125,2.8,1.125,4.5c0,1.7-0.387,3.2-1.156,4.5c-0.77,1.3-1.811,2.305-3.119,3.015
			c-1.311,0.71-2.775,1.065-4.395,1.065C129.738,68.513,128.299,68.158,127.02,67.448z M133.484,64.298
			c0.67-0.37,1.205-0.925,1.605-1.665c0.398-0.74,0.6-1.64,0.6-2.7c0-1.58-0.416-2.794-1.246-3.645
			c-0.83-0.85-1.844-1.275-3.045-1.275c-1.199,0-2.205,0.425-3.014,1.275c-0.811,0.851-1.216,2.065-1.216,3.645
			c0,1.58,0.396,2.795,1.185,3.645c0.791,0.851,1.785,1.275,2.986,1.275C132.1,64.853,132.814,64.668,133.484,64.298z"/>
	</g>
	<g display="inline">
		<path fill="#A5C2DF" d="M78.634,81.753c-0.391-0.446-1.017-0.591-1.606-0.543c-0.931,0.074-1.791-0.201-2.356-0.845
			c-1.127-1.281-0.653-3.542,1.055-5.043c1.707-1.501,4.01-1.681,5.137-0.399c0.566,0.644,0.729,1.531,0.537,2.445
			c-0.124,0.58-0.061,1.22,0.33,1.665c0.545,0.62,1.49,0.681,2.11,0.135l2.749-2.416c1.281-1.126,3.236-1,4.36,0.282l12.248,13.936
			c1.127,1.281,1,3.234-0.279,4.361l-2.75,2.416c-0.619,0.545-1.565,0.484-2.11-0.135c-0.39-0.447-0.452-1.084-0.33-1.664
			c0.192-0.914,0.031-1.801-0.537-2.445c-1.126-1.281-3.427-1.104-5.137,0.4c-1.708,1.498-2.182,3.762-1.056,5.041
			c0.568,0.646,1.426,0.918,2.357,0.846c0.591-0.047,1.215,0.098,1.606,0.545c0.544,0.615,0.482,1.563-0.134,2.107l-5.847,5.137
			c-1.281,1.125-3.237,1-4.362-0.279l-5.137-5.846c-0.543-0.621-0.484-1.566,0.136-2.109c0.446-0.393,1.084-0.455,1.665-0.33
			c0.913,0.189,1.8,0.027,2.444-0.539c1.282-1.127,1.103-3.428-0.399-5.139c-1.5-1.707-3.761-2.18-5.043-1.055
			c-0.645,0.568-0.917,1.428-0.844,2.357c0.047,0.59-0.097,1.217-0.542,1.607c-0.619,0.547-1.565,0.484-2.11-0.135l-2.416-2.75
			c-1.125-1.281-1-3.234,0.282-4.363l5.845-5.135C79.117,83.318,79.18,82.372,78.634,81.753z"/>
		<g>
			<path fill="#A5C2DF" d="M53.997,108.32c-0.316-0.475-0.897-0.695-1.47-0.725c-0.899-0.049-1.687-0.42-2.146-1.109
				c-0.913-1.371-0.17-3.473,1.655-4.689c1.825-1.221,4.052-1.1,4.966,0.271c0.46,0.689,0.501,1.559,0.201,2.408
				c-0.193,0.541-0.214,1.158,0.104,1.637c0.442,0.662,1.338,0.84,2,0.396l2.938-1.957c1.371-0.918,3.225-0.543,4.138,0.826
				l1.96,2.939c0.442,0.662,1.34,0.838,2.001,0.396c0.476-0.316,0.694-0.896,0.723-1.469c0.05-0.902,0.421-1.688,1.11-2.145
				c1.371-0.914,3.473-0.17,4.691,1.652c1.219,1.826,1.095,4.051-0.276,4.965c-0.687,0.459-1.556,0.502-2.406,0.203
				c-0.54-0.193-1.158-0.213-1.634,0.104c-0.662,0.443-0.842,1.338-0.4,2.002l4.167,6.246c0.915,1.371,0.545,3.227-0.826,4.137
				l-2.937,1.963c-0.663,0.439-1.56,0.262-2.002-0.4c-0.316-0.475-0.296-1.094-0.103-1.635c0.3-0.852,0.259-1.721-0.201-2.406
				c-0.914-1.371-3.141-1.494-4.966-0.275c-1.826,1.217-2.569,3.322-1.654,4.691c0.459,0.688,1.245,1.061,2.146,1.109
				c0.573,0.029,1.152,0.248,1.471,0.725c0.44,0.662,0.261,1.557-0.402,1.998l-6.247,4.17c-1.371,0.912-3.225,0.543-4.14-0.828
				l-9.935-14.895c-0.915-1.371-0.545-3.225,0.826-4.139l6.247-4.168C54.259,109.879,54.438,108.98,53.997,108.32z"/>
		</g>
		<path fill="#A5C2DF" d="M87.85,122.492c-0.562-0.104-1.122,0.16-1.544,0.551c-0.661,0.611-1.476,0.918-2.289,0.766
			c-1.619-0.297-2.611-2.297-2.213-4.453c0.396-2.158,2.035-3.672,3.655-3.375c0.813,0.15,1.465,0.729,1.868,1.535
			c0.252,0.516,0.682,0.959,1.243,1.064c0.784,0.145,1.536-0.377,1.682-1.158l0.641-3.473c0.298-1.619,1.854-2.689,3.476-2.393
			l3.473,0.639c0.781,0.145,1.535-0.375,1.68-1.154c0.104-0.563-0.159-1.125-0.551-1.547c-0.611-0.66-0.917-1.477-0.768-2.287
			c0.3-1.621,2.298-2.613,4.456-2.215c2.157,0.396,3.67,2.033,3.373,3.656c-0.151,0.814-0.728,1.465-1.532,1.867
			c-0.516,0.252-0.962,0.682-1.065,1.244c-0.145,0.785,0.374,1.535,1.157,1.68l7.386,1.361c1.619,0.301,2.692,1.854,2.395,3.477
			l-0.641,3.473c-0.145,0.783-0.896,1.301-1.68,1.158c-0.563-0.104-0.992-0.551-1.245-1.066c-0.403-0.807-1.055-1.381-1.866-1.531
			c-1.623-0.299-3.261,1.213-3.658,3.371c-0.398,2.158,0.595,4.156,2.214,4.457c0.813,0.146,1.629-0.156,2.29-0.768
			c0.421-0.393,0.981-0.654,1.545-0.553c0.782,0.145,1.3,0.898,1.156,1.682l-1.361,7.385c-0.3,1.621-1.857,2.693-3.476,2.395
			l-7.388-1.361c-0.781-0.145-1.301-0.898-1.155-1.68c0.103-0.563,0.55-0.994,1.063-1.244c0.807-0.4,1.383-1.055,1.532-1.867
			c0.299-1.621-1.213-3.258-3.372-3.658c-2.157-0.396-4.155,0.596-4.453,2.215c-0.15,0.814,0.154,1.629,0.766,2.291
			c0.391,0.422,0.654,0.982,0.55,1.541c-0.145,0.785-0.897,1.303-1.68,1.16l-3.473-0.641c-1.621-0.301-2.691-1.857-2.394-3.477
			l1.361-7.385C89.151,123.391,88.633,122.637,87.85,122.492z"/>
		<g>
			<path fill="#E2E2E4" d="M53.902,100.014c1.669-0.25,3.139,0.313,3.931,1.5c0.624,0.932,0.734,2.104,0.311,3.301
				c-0.108,0.301-0.11,0.588-0.006,0.742c0.095,0.143,0.266,0.219,0.435,0.193c0.064-0.01,0.124-0.035,0.18-0.072l2.938-1.957
				c0.493-0.33,1.039-0.541,1.623-0.627c1.518-0.227,3.05,0.453,3.902,1.73l1.96,2.938c0.095,0.141,0.267,0.217,0.437,0.191
				c0.063-0.01,0.124-0.033,0.178-0.068c0.156-0.105,0.264-0.367,0.28-0.693c0.07-1.266,0.622-2.303,1.553-2.922
				c0.407-0.271,0.865-0.447,1.361-0.52c1.702-0.254,3.553,0.707,4.718,2.449c1.522,2.285,1.273,5.133-0.552,6.352
				c-0.409,0.273-0.868,0.449-1.365,0.523c-0.615,0.092-1.282,0.02-1.937-0.211c-0.197-0.07-0.394-0.098-0.549-0.074
				c-0.077,0.012-0.139,0.033-0.19,0.066c-0.204,0.137-0.258,0.414-0.124,0.617l4.167,6.246c0.592,0.887,0.802,1.949,0.593,2.996
				c-0.21,1.041-0.812,1.941-1.695,2.529l-2.938,1.961c-0.302,0.201-0.636,0.33-0.994,0.383c-0.933,0.139-1.873-0.277-2.394-1.061
				c-0.462-0.691-0.539-1.611-0.216-2.523c0.12-0.338,0.267-0.986-0.088-1.518c-0.354-0.529-1.092-0.766-1.978-0.635
				c-0.546,0.082-1.101,0.301-1.604,0.637c-0.819,0.547-1.403,1.342-1.559,2.127c-0.063,0.316-0.083,0.779,0.183,1.178
				c0.356,0.533,1.011,0.646,1.368,0.664c0.966,0.053,1.786,0.477,2.25,1.17c0.744,1.121,0.438,2.641-0.68,3.385l-6.248,4.172
				c-0.493,0.326-1.039,0.537-1.621,0.623c-1.521,0.227-3.053-0.451-3.905-1.729l-9.935-14.896
				c-1.219-1.828-0.724-4.307,1.103-5.525l6.249-4.168c0.203-0.135,0.256-0.41,0.123-0.611c-0.105-0.158-0.371-0.266-0.694-0.283
				c-1.263-0.068-2.301-0.619-2.923-1.553c-1.219-1.83-0.352-4.555,1.931-6.076C52.227,100.467,53.064,100.137,53.902,100.014
				 M53.829,99.518c-0.912,0.137-1.82,0.492-2.627,1.031c-2.511,1.674-3.44,4.711-2.07,6.77c0.712,1.066,1.889,1.697,3.313,1.775
				c0.098,0.004,0.175,0.021,0.23,0.039l-6.159,4.107c-2.056,1.373-2.613,4.162-1.242,6.219l9.936,14.896
				c0.959,1.438,2.684,2.201,4.394,1.947c0.656-0.098,1.27-0.334,1.824-0.703l6.249-4.172c1.348-0.896,1.716-2.727,0.819-4.076
				c-0.553-0.826-1.514-1.332-2.64-1.393c-0.264-0.014-0.744-0.092-0.979-0.443c-0.171-0.256-0.154-0.578-0.109-0.803
				c0.131-0.658,0.635-1.334,1.347-1.809c0.441-0.295,0.925-0.488,1.4-0.557c0.678-0.102,1.249,0.057,1.487,0.416
				c0.235,0.352,0.122,0.824,0.033,1.076c-0.378,1.059-0.279,2.141,0.271,2.965c0.627,0.943,1.759,1.445,2.882,1.277
				c0.432-0.063,0.834-0.217,1.197-0.461l2.939-1.961c0.994-0.662,1.672-1.674,1.907-2.848c0.236-1.176,0-2.375-0.667-3.371
				l-4.111-6.162c0.056,0.008,0.132,0.021,0.222,0.055c0.731,0.258,1.483,0.338,2.18,0.234c0.57-0.086,1.097-0.287,1.568-0.602
				c2.057-1.371,2.367-4.531,0.691-7.045c-1.271-1.9-3.315-2.949-5.207-2.666c-0.57,0.084-1.097,0.285-1.566,0.598
				c-1.065,0.707-1.695,1.885-1.774,3.311c-0.005,0.102-0.022,0.178-0.039,0.232l-1.901-2.852c-0.958-1.436-2.682-2.199-4.392-1.947
				c-0.659,0.1-1.274,0.336-1.828,0.707l-2.851,1.9c0.007-0.053,0.022-0.131,0.054-0.221c0.478-1.354,0.348-2.684-0.366-3.748
				C57.348,99.883,55.695,99.24,53.829,99.518L53.829,99.518z"/>
		</g>
		<path fill="#E2E2E4" d="M78.091,73.119c1.416-0.21,2.7,0.206,3.522,1.143c0.759,0.863,1.03,2.039,0.764,3.313
			c-0.071,0.338-0.032,0.642,0.104,0.797c0.111,0.126,0.277,0.186,0.445,0.162c0.094-0.015,0.18-0.053,0.252-0.117l2.75-2.417
			c0.591-0.52,1.316-0.856,2.093-0.972c1.384-0.206,2.759,0.297,3.678,1.346l12.247,13.934c1.489,1.695,1.324,4.285-0.369,5.775
			l-2.749,2.416c-0.361,0.316-0.804,0.523-1.278,0.592c-0.844,0.127-1.683-0.18-2.244-0.82c-0.56-0.637-0.763-1.559-0.558-2.527
			c0.077-0.373,0.142-1.07-0.309-1.58c-0.366-0.416-0.995-0.594-1.727-0.484c-0.692,0.104-1.401,0.449-2.001,0.977
			c-0.773,0.68-1.268,1.582-1.322,2.42c-0.021,0.342,0.023,0.828,0.358,1.209c0.449,0.51,1.15,0.537,1.525,0.51
			c0.989-0.08,1.878,0.242,2.438,0.879c0.908,1.029,0.809,2.607-0.224,3.52l-5.846,5.137c-0.594,0.521-1.317,0.857-2.098,0.973
			c-1.382,0.207-2.756-0.297-3.676-1.342l-5.139-5.848c-0.906-1.035-0.804-2.615,0.229-3.518c0.361-0.32,0.823-0.529,1.336-0.605
			c0.385-0.057,0.787-0.041,1.191,0.047c0.287,0.059,0.56,0.068,0.809,0.033c0.305-0.047,0.564-0.162,0.772-0.344
			c0.511-0.449,0.536-1.146,0.507-1.523c-0.057-0.746-0.42-1.547-0.996-2.203c-0.818-0.932-1.943-1.443-2.865-1.307
			c-0.303,0.047-0.56,0.16-0.768,0.342c-0.511,0.449-0.538,1.148-0.509,1.523c0.081,0.988-0.24,1.879-0.877,2.439
			c-0.361,0.318-0.804,0.525-1.278,0.596c-0.843,0.125-1.681-0.182-2.244-0.82l-2.416-2.75c-1.488-1.693-1.32-4.283,0.373-5.773
			l5.845-5.137c0.133-0.118,0.162-0.264,0.167-0.34c0.004-0.077-0.004-0.225-0.123-0.359c-0.135-0.154-0.433-0.233-0.777-0.206
			c-1.278,0.101-2.438-0.331-3.186-1.182c-0.747-0.849-1.025-2.053-0.764-3.304c0.243-1.164,0.921-2.283,1.908-3.15
			C75.949,73.793,77.023,73.278,78.091,73.119 M78.018,72.625c-1.162,0.173-2.328,0.73-3.283,1.57
			c-1.067,0.938-1.802,2.154-2.068,3.423c-0.294,1.408,0.027,2.769,0.878,3.737c0.851,0.972,2.164,1.463,3.601,1.35
			c0.229-0.018,0.352,0.034,0.373,0.048l-5.855,5.12c-1.901,1.672-2.088,4.578-0.419,6.479l2.416,2.75
			c0.675,0.768,1.682,1.135,2.692,0.984c0.57-0.084,1.101-0.332,1.535-0.713c0.758-0.668,1.14-1.709,1.046-2.855
			c-0.021-0.283-0.007-0.805,0.341-1.109c0.132-0.115,0.305-0.191,0.51-0.223c0.747-0.109,1.718,0.348,2.417,1.143
			c0.505,0.576,0.824,1.271,0.873,1.912c0.021,0.283,0.008,0.805-0.339,1.107c-0.134,0.117-0.308,0.195-0.515,0.225
			c-0.193,0.029-0.406,0.02-0.632-0.027c-0.464-0.1-0.925-0.117-1.37-0.051c-0.608,0.09-1.158,0.342-1.593,0.725
			c-1.239,1.084-1.363,2.979-0.274,4.223l5.141,5.848c1.031,1.174,2.574,1.738,4.125,1.508c0.876-0.131,1.69-0.51,2.354-1.094
			l5.845-5.135c1.239-1.096,1.359-2.99,0.271-4.229c-0.666-0.756-1.704-1.139-2.853-1.047c-0.283,0.023-0.806,0.008-1.111-0.34
			c-0.222-0.254-0.25-0.6-0.233-0.846c0.046-0.709,0.477-1.486,1.152-2.078c0.527-0.465,1.146-0.768,1.744-0.857
			c0.561-0.084,1.025,0.033,1.277,0.322c0.307,0.346,0.254,0.863,0.195,1.143c-0.238,1.127,0.007,2.205,0.671,2.961
			c0.675,0.77,1.681,1.139,2.693,0.988c0.57-0.084,1.101-0.332,1.535-0.713l2.749-2.416c1.9-1.674,2.087-4.58,0.415-6.48
			L92.076,76.043c-1.03-1.176-2.574-1.742-4.126-1.51c-0.875,0.13-1.688,0.507-2.351,1.092l-2.75,2.416
			c0.006-0.009-0.03-0.138,0.018-0.362c0.301-1.432-0.012-2.763-0.877-3.747C81.052,72.865,79.605,72.389,78.018,72.625
			L78.018,72.625z"/>
		<path fill="#E2E2E4" d="M100.842,103.967c0.653-0.098,1.323-0.084,1.997,0.041c2.7,0.498,4.572,2.66,4.177,4.822
			c-0.205,1.1-0.939,2.016-2.077,2.584c-0.289,0.139-0.488,0.344-0.522,0.525c-0.028,0.158,0.033,0.277,0.071,0.332
			c0.039,0.057,0.127,0.154,0.286,0.184l7.386,1.363c2.159,0.4,3.593,2.48,3.195,4.639l-0.642,3.473
			c-0.188,1.029-1.011,1.822-2.043,1.975c-0.266,0.041-0.533,0.037-0.802-0.012c-0.816-0.152-1.532-0.738-1.958-1.605
			c-0.161-0.32-0.524-0.877-1.154-0.992c-0.139-0.027-0.281-0.029-0.425-0.008c-0.947,0.141-1.817,1.225-2.065,2.578
			c-0.294,1.586,0.353,3.092,1.408,3.289c0.141,0.025,0.285,0.029,0.43,0.008c0.34-0.053,0.688-0.234,0.999-0.521
			c0.48-0.447,1.04-0.732,1.615-0.816c0.266-0.039,0.532-0.037,0.796,0.012c1.32,0.244,2.199,1.521,1.957,2.846l-1.362,7.385
			c-0.309,1.676-1.647,2.971-3.333,3.219c-0.434,0.066-0.873,0.057-1.308-0.021l-7.388-1.361c-0.641-0.119-1.198-0.482-1.568-1.018
			c-0.37-0.539-0.507-1.189-0.389-1.826c0.149-0.82,0.734-1.535,1.603-1.959c0.32-0.162,0.876-0.521,0.993-1.154
			c0.195-1.059-0.981-2.199-2.57-2.492c-0.455-0.084-0.905-0.094-1.339-0.029c-1.052,0.156-1.817,0.723-1.949,1.441
			c-0.116,0.631,0.273,1.168,0.516,1.43c0.661,0.711,0.951,1.588,0.801,2.402c-0.191,1.027-1.013,1.822-2.046,1.975
			c-0.266,0.039-0.533,0.035-0.8-0.014l-3.474-0.641c-2.158-0.4-3.592-2.482-3.194-4.641l1.361-7.381
			c0.044-0.242-0.117-0.477-0.355-0.521c-0.042-0.008-0.088-0.008-0.136,0c-0.167,0.025-0.367,0.135-0.549,0.303
			c-0.612,0.566-1.327,0.924-2.065,1.033c-0.363,0.055-0.729,0.047-1.084-0.018c-1.084-0.201-2.023-0.953-2.577-2.068
			c-0.515-1.035-0.669-2.297-0.438-3.551c0.406-2.201,1.943-3.926,3.74-4.193c0.361-0.055,0.725-0.049,1.08,0.018
			c1.1,0.203,2.017,0.938,2.585,2.078c0.14,0.285,0.343,0.486,0.525,0.52c0.05,0.01,0.098,0.01,0.145,0.004
			c0.157-0.023,0.334-0.145,0.373-0.357l0.64-3.473c0.308-1.674,1.646-2.969,3.331-3.219c0.435-0.064,0.875-0.057,1.309,0.023
			l3.475,0.639c0.048,0.008,0.096,0.01,0.144,0.002c0.156-0.023,0.333-0.143,0.371-0.355c0.033-0.186-0.081-0.447-0.303-0.686
			c-0.858-0.93-1.218-2.049-1.016-3.15C97.511,105.451,98.932,104.25,100.842,103.967 M100.769,103.473
			c-2.125,0.314-3.711,1.674-4.041,3.461c-0.232,1.26,0.173,2.529,1.14,3.578c0.07,0.076,0.114,0.143,0.141,0.193l-3.369-0.623
			c-0.489-0.09-0.983-0.1-1.473-0.025c-1.896,0.281-3.403,1.738-3.748,3.621l-0.623,3.375c-0.03-0.041-0.077-0.107-0.12-0.197
			c-0.641-1.285-1.686-2.117-2.943-2.348c-0.409-0.078-0.828-0.084-1.245-0.021c-2.005,0.299-3.714,2.188-4.159,4.598
			c-0.25,1.361-0.078,2.732,0.482,3.863c0.625,1.258,1.694,2.109,2.936,2.338c0.411,0.074,0.83,0.082,1.247,0.02
			c0.839-0.123,1.645-0.525,2.332-1.16c0.073-0.068,0.14-0.113,0.189-0.139l-1.343,7.279c-0.447,2.43,1.166,4.773,3.596,5.225
			l3.474,0.641c0.321,0.059,0.645,0.064,0.964,0.016c1.244-0.184,2.233-1.141,2.464-2.377c0.182-0.973-0.156-2.006-0.926-2.832
			c-0.179-0.195-0.468-0.586-0.391-1c0.092-0.5,0.707-0.916,1.532-1.039c0.377-0.055,0.772-0.047,1.176,0.027
			c1.394,0.256,2.295,1.221,2.168,1.91c-0.078,0.418-0.487,0.676-0.724,0.795c-1.011,0.494-1.695,1.34-1.873,2.318
			c-0.143,0.77,0.023,1.551,0.47,2.199c0.445,0.646,1.116,1.082,1.888,1.227l7.389,1.359c0.49,0.09,0.986,0.1,1.473,0.027
			c1.896-0.283,3.403-1.738,3.75-3.623l1.361-7.387c0.293-1.594-0.765-3.133-2.357-3.428c-0.316-0.059-0.64-0.063-0.96-0.016
			c-0.675,0.102-1.326,0.43-1.883,0.947c-0.234,0.217-0.494,0.355-0.731,0.391c-0.09,0.014-0.179,0.012-0.265-0.004
			c-0.688-0.129-1.265-1.313-1.008-2.707c0.208-1.131,0.917-2.064,1.649-2.174c0.087-0.014,0.175-0.012,0.261,0.004
			c0.415,0.076,0.678,0.488,0.795,0.727c0.497,1.01,1.342,1.691,2.315,1.871c0.324,0.059,0.647,0.064,0.966,0.018
			c1.245-0.186,2.235-1.143,2.462-2.381l0.641-3.471c0.448-2.43-1.165-4.771-3.595-5.223l-7.285-1.344
			c0.041-0.031,0.105-0.078,0.19-0.119c1.284-0.641,2.117-1.684,2.349-2.943c0.448-2.432-1.605-4.857-4.575-5.404
			C102.201,103.381,101.475,103.367,100.769,103.473L100.769,103.473z"/>
	</g>
</g>
<g id="Livello_2">
	<polygon fill="#264776" points="85.039,0 158.528,42.506 158.528,127.555 85.039,170.079 11.55,127.555 11.55,42.506 	"/>
	<g>
		<path fill="#FEFEFE" d="M38.989,40.469v4.004H28.678v6.342h7.902v3.933h-7.902v10.453h-4.961V40.469H38.989z"/>
		<path fill="#FEFEFE" d="M46.111,64.262c-1.512-0.838-2.699-2.025-3.561-3.561c-0.863-1.535-1.293-3.307-1.293-5.315
			s0.443-3.779,1.329-5.315s2.096-2.722,3.632-3.562c1.536-0.838,3.248-1.258,5.138-1.258c1.89,0,3.602,0.42,5.138,1.258
			c1.535,0.839,2.747,2.026,3.632,3.562s1.329,3.307,1.329,5.315s-0.455,3.78-1.364,5.315c-0.91,1.536-2.138,2.723-3.685,3.561
			c-1.548,0.838-3.278,1.258-5.191,1.258C49.323,65.52,47.623,65.101,46.111,64.262z M53.747,60.542
			c0.791-0.437,1.423-1.092,1.896-1.967c0.472-0.874,0.708-1.937,0.708-3.189c0-1.866-0.49-3.301-1.47-4.305
			c-0.981-1.003-2.179-1.506-3.597-1.506c-1.417,0-2.604,0.502-3.561,1.506c-0.957,1.004-1.435,2.439-1.435,4.305
			c0,1.866,0.466,3.302,1.399,4.305c0.933,1.004,2.108,1.506,3.526,1.506C52.111,61.197,52.955,60.979,53.747,60.542z"/>
		<path fill="#FEFEFE" d="M77.859,65.201l-5.457-9.638h-2.338v9.638h-4.961V40.469h9.284c1.913,0,3.543,0.337,4.889,1.01
			c1.347,0.673,2.356,1.583,3.029,2.729c0.674,1.146,1.011,2.427,1.011,3.844c0,1.63-0.473,3.101-1.417,4.412
			c-0.945,1.311-2.351,2.214-4.217,2.71l5.917,10.028H77.859z M70.063,51.843h4.146c1.347,0,2.351-0.324,3.012-0.974
			c0.661-0.65,0.992-1.553,0.992-2.711c0-1.134-0.331-2.014-0.992-2.64c-0.662-0.626-1.666-0.939-3.012-0.939h-4.146V51.843z"/>
		<path fill="#FEFEFE" d="M105.921,56.875h-14.35c0.117,1.417,0.614,2.528,1.487,3.331c0.873,0.803,1.949,1.205,3.226,1.205
			c1.842,0,3.153-0.791,3.932-2.374h5.352c-0.567,1.89-1.653,3.443-3.261,4.66c-1.606,1.217-3.579,1.825-5.917,1.825
			c-1.891,0-3.585-0.419-5.085-1.258s-2.669-2.025-3.507-3.561c-0.84-1.535-1.258-3.307-1.258-5.315c0-2.031,0.412-3.814,1.239-5.35
			c0.826-1.536,1.984-2.717,3.472-3.543c1.489-0.827,3.202-1.241,5.139-1.241c1.865,0,3.538,0.402,5.015,1.205
			c1.476,0.803,2.621,1.943,3.437,3.419c0.814,1.477,1.223,3.171,1.223,5.085C106.063,55.67,106.016,56.308,105.921,56.875z
			 M100.925,53.543c-0.023-1.276-0.484-2.297-1.382-3.064c-0.898-0.768-1.996-1.152-3.295-1.152c-1.229,0-2.262,0.372-3.101,1.116
			c-0.839,0.744-1.352,1.778-1.541,3.101H100.925z"/>
		<path fill="#FEFEFE" d="M109.642,50.053c0.826-1.524,1.973-2.704,3.438-3.543c1.465-0.838,3.142-1.258,5.031-1.258
			c2.433,0,4.447,0.608,6.041,1.825c1.595,1.218,2.662,2.923,3.207,5.121h-5.351c-0.283-0.851-0.762-1.518-1.436-2.002
			c-0.672-0.484-1.505-0.727-2.497-0.727c-1.418,0-2.539,0.514-3.366,1.541c-0.827,1.028-1.24,2.487-1.24,4.376
			c0,1.866,0.413,3.313,1.24,4.341c0.827,1.027,1.948,1.541,3.366,1.541c2.007,0,3.317-0.897,3.933-2.693h5.351
			c-0.545,2.126-1.618,3.815-3.226,5.067c-1.605,1.252-3.613,1.878-6.022,1.878c-1.89,0-3.566-0.419-5.031-1.258
			s-2.611-2.02-3.438-3.543c-0.827-1.523-1.24-3.301-1.24-5.333C108.401,53.355,108.814,51.577,109.642,50.053z"/>
		<path fill="#FEFEFE" d="M134.623,64.262c-1.514-0.838-2.699-2.025-3.563-3.561c-0.862-1.535-1.293-3.307-1.293-5.315
			s0.443-3.779,1.329-5.315s2.096-2.722,3.632-3.562c1.534-0.838,3.248-1.258,5.138-1.258s3.604,0.42,5.138,1.258
			c1.536,0.839,2.747,2.026,3.633,3.562s1.329,3.307,1.329,5.315s-0.457,3.78-1.366,5.315c-0.908,1.536-2.139,2.723-3.684,3.561
			c-1.548,0.838-3.278,1.258-5.19,1.258C137.834,65.52,136.134,65.101,134.623,64.262z M142.258,60.542
			c0.792-0.437,1.424-1.092,1.896-1.967c0.471-0.874,0.708-1.937,0.708-3.189c0-1.866-0.491-3.301-1.472-4.305
			c-0.98-1.003-2.178-1.506-3.596-1.506c-1.417,0-2.604,0.502-3.56,1.506c-0.958,1.004-1.437,2.439-1.437,4.305
			c0,1.866,0.468,3.302,1.399,4.305c0.935,1.004,2.108,1.506,3.527,1.506C140.623,61.197,141.467,60.979,142.258,60.542z"/>
	</g>
	<g>
		<path fill="#A5C2DF" d="M77.474,81.158c-0.462-0.526-1.201-0.698-1.897-0.642c-1.1,0.087-2.115-0.237-2.783-0.998
			c-1.331-1.513-0.771-4.184,1.246-5.957c2.016-1.773,4.736-1.985,6.067-0.472c0.669,0.76,0.86,1.808,0.634,2.888
			c-0.146,0.685-0.071,1.44,0.39,1.966c0.644,0.732,1.76,0.804,2.492,0.16l3.246-2.853c1.514-1.331,3.823-1.181,5.15,0.333
			l14.467,16.46c1.331,1.513,1.181,3.819-0.33,5.15l-3.248,2.854c-0.731,0.644-1.85,0.571-2.493-0.159
			c-0.46-0.528-0.534-1.281-0.39-1.966c0.228-1.08,0.037-2.127-0.634-2.889c-1.33-1.513-4.048-1.303-6.067,0.474
			c-2.018,1.769-2.577,4.442-1.247,5.954c0.671,0.763,1.685,1.084,2.784,0.998c0.698-0.055,1.436,0.116,1.897,0.644
			c0.643,0.728,0.57,1.846-0.158,2.489l-6.905,6.067c-1.514,1.329-3.823,1.181-5.152-0.33l-6.067-6.904
			c-0.642-0.733-0.572-1.85,0.16-2.491c0.527-0.464,1.281-0.538,1.966-0.39c1.078,0.224,2.125,0.032,2.887-0.637
			c1.515-1.331,1.302-4.049-0.472-6.069c-1.771-2.017-4.442-2.575-5.957-1.246c-0.761,0.671-1.083,1.687-0.997,2.784
			c0.056,0.697-0.115,1.438-0.641,1.898c-0.731,0.646-1.849,0.572-2.492-0.159l-2.854-3.248c-1.329-1.513-1.181-3.819,0.333-5.153
			l6.904-6.065C78.044,83.006,78.119,81.888,77.474,81.158z"/>
		<g>
			<path fill="#A5C2DF" d="M48.375,112.537c-0.374-0.561-1.06-0.821-1.737-0.856c-1.062-0.058-1.992-0.496-2.534-1.311
				c-1.078-1.619-0.201-4.102,1.955-5.538c2.156-1.442,4.787-1.299,5.865,0.32c0.544,0.814,0.592,1.841,0.238,2.845
				c-0.229,0.639-0.253,1.368,0.122,1.933c0.522,0.782,1.581,0.992,2.363,0.469l3.47-2.312c1.619-1.084,3.809-0.642,4.887,0.976
				l2.315,3.472c0.522,0.782,1.583,0.99,2.364,0.469c0.562-0.374,0.82-1.06,0.854-1.735c0.06-1.065,0.498-1.993,1.312-2.532
				c1.62-1.08,4.102-0.201,5.541,1.951c1.439,2.157,1.293,4.784-0.326,5.864c-0.811,0.542-1.837,0.593-2.842,0.24
				c-0.637-0.229-1.367-0.252-1.93,0.122c-0.782,0.523-0.995,1.58-0.472,2.364l4.921,7.377c1.081,1.62,0.645,3.812-0.976,4.887
				l-3.468,2.318c-0.783,0.519-1.842,0.309-2.365-0.474c-0.374-0.561-0.35-1.292-0.121-1.931c0.354-1.006,0.306-2.032-0.237-2.842
				c-1.08-1.619-3.709-1.765-5.866-0.325c-2.157,1.437-3.035,3.924-1.954,5.541c0.542,0.812,1.471,1.253,2.534,1.311
				c0.677,0.034,1.361,0.293,1.737,0.855c0.521,0.782,0.309,1.839-0.475,2.36l-7.378,4.925c-1.619,1.077-3.809,0.642-4.889-0.979
				L39.548,124.71c-1.081-1.619-0.644-3.809,0.976-4.889l7.378-4.923C48.685,114.378,48.896,113.316,48.375,112.537z"/>
		</g>
		<path fill="#A5C2DF" d="M88.358,129.275c-0.663-0.122-1.325,0.189-1.823,0.65c-0.78,0.722-1.744,1.084-2.703,0.904
			c-1.913-0.351-3.084-2.713-2.614-5.26c0.468-2.549,2.404-4.337,4.317-3.986c0.96,0.178,1.731,0.86,2.206,1.813
			c0.298,0.609,0.806,1.133,1.469,1.257c0.926,0.171,1.814-0.445,1.986-1.367l0.757-4.102c0.352-1.913,2.189-3.177,4.104-2.826
			l4.102,0.754c0.923,0.171,1.813-0.442,1.984-1.363c0.122-0.664-0.188-1.328-0.651-1.827c-0.722-0.779-1.083-1.744-0.906-2.701
			c0.354-1.915,2.714-3.087,5.264-2.616c2.548,0.469,4.334,2.401,3.983,4.318c-0.179,0.962-0.859,1.73-1.81,2.206
			c-0.609,0.297-1.136,0.805-1.259,1.469c-0.17,0.928,0.442,1.813,1.367,1.984l8.724,1.607c1.912,0.355,3.18,2.189,2.828,4.106
			l-0.757,4.102c-0.171,0.925-1.059,1.536-1.984,1.368c-0.665-0.122-1.172-0.65-1.47-1.26c-0.477-0.952-1.246-1.631-2.205-1.809
			c-1.917-0.353-3.851,1.433-4.32,3.981c-0.471,2.55,0.702,4.909,2.615,5.265c0.96,0.173,1.924-0.185,2.704-0.906
			c0.497-0.464,1.159-0.773,1.825-0.653c0.924,0.171,1.535,1.062,1.365,1.986l-1.607,8.723c-0.354,1.914-2.194,3.181-4.105,2.828
			l-8.726-1.608c-0.923-0.171-1.536-1.061-1.364-1.983c0.121-0.665,0.649-1.175,1.256-1.47c0.953-0.473,1.634-1.246,1.81-2.205
			c0.354-1.915-1.433-3.849-3.982-4.321c-2.548-0.468-4.908,0.704-5.26,2.616c-0.178,0.962,0.183,1.924,0.904,2.706
			c0.461,0.498,0.772,1.16,0.649,1.82c-0.171,0.927-1.06,1.538-1.984,1.37l-4.102-0.757c-1.914-0.355-3.179-2.193-2.826-4.106
			l1.607-8.722C89.896,130.336,89.283,129.446,88.358,129.275z"/>
		<g display="none">
			<path display="inline" fill="#E2E2E4" d="M48.263,102.726c1.972-0.295,3.708,0.369,4.643,1.771
				c0.737,1.101,0.867,2.484,0.367,3.898c-0.127,0.355-0.13,0.694-0.007,0.877c0.112,0.168,0.313,0.259,0.513,0.229
				c0.076-0.012,0.146-0.042,0.212-0.085l3.47-2.312c0.582-0.391,1.227-0.64,1.917-0.741c1.793-0.268,3.603,0.535,4.608,2.044
				l2.315,3.47c0.113,0.166,0.315,0.256,0.516,0.226c0.075-0.011,0.146-0.039,0.21-0.08c0.185-0.125,0.312-0.434,0.331-0.819
				c0.083-1.494,0.735-2.72,1.834-3.451c0.481-0.32,1.021-0.528,1.607-0.613c2.01-0.3,4.196,0.835,5.572,2.893
				c1.798,2.699,1.504,6.063-0.652,7.502c-0.482,0.323-1.025,0.53-1.612,0.618c-0.726,0.108-1.514,0.023-2.287-0.249
				c-0.233-0.083-0.465-0.115-0.649-0.088c-0.091,0.015-0.165,0.04-0.225,0.079c-0.24,0.161-0.305,0.488-0.146,0.729L75.722,126
				c0.699,1.047,0.947,2.302,0.7,3.538c-0.248,1.229-0.959,2.293-2.002,2.987l-3.47,2.316c-0.356,0.237-0.75,0.39-1.173,0.452
				c-1.102,0.164-2.212-0.328-2.827-1.253c-0.545-0.816-0.637-1.903-0.255-2.98c0.142-0.398,0.315-1.165-0.104-1.792
				c-0.417-0.625-1.29-0.904-2.335-0.75c-0.646,0.097-1.301,0.355-1.895,0.752c-0.968,0.646-1.657,1.585-1.841,2.513
				c-0.075,0.373-0.098,0.92,0.216,1.391c0.42,0.63,1.193,0.764,1.615,0.784c1.141,0.063,2.109,0.563,2.658,1.382
				c0.878,1.324,0.518,3.119-0.804,3.998l-7.379,4.928c-0.582,0.385-1.227,0.634-1.915,0.735c-1.796,0.268-3.606-0.533-4.613-2.041
				l-11.734-17.595c-1.439-2.159-0.854-5.087,1.303-6.526l7.381-4.923c0.239-0.159,0.303-0.484,0.146-0.722
				c-0.125-0.188-0.438-0.313-0.82-0.335c-1.492-0.08-2.718-0.731-3.453-1.834c-1.439-2.161-0.415-5.379,2.281-7.177
				C46.284,103.261,47.273,102.871,48.263,102.726 M48.177,102.14c-1.077,0.161-2.15,0.581-3.103,1.218
				c-2.966,1.978-4.063,5.564-2.445,7.996c0.841,1.26,2.231,2.005,3.913,2.097c0.115,0.005,0.207,0.025,0.272,0.046l-7.274,4.852
				c-2.428,1.622-3.086,4.916-1.466,7.345l11.735,17.595c1.133,1.698,3.169,2.6,5.19,2.3c0.774-0.115,1.5-0.395,2.154-0.83
				l7.38-4.928c1.592-1.059,2.027-3.221,0.967-4.814c-0.653-0.976-1.789-1.573-3.118-1.645c-0.312-0.017-0.878-0.108-1.156-0.523
				c-0.202-0.303-0.182-0.684-0.129-0.948c0.155-0.777,0.75-1.576,1.591-2.137c0.521-0.348,1.093-0.576,1.654-0.657
				c0.801-0.12,1.475,0.067,1.757,0.491c0.277,0.415,0.144,0.974,0.039,1.271c-0.446,1.25-0.329,2.528,0.32,3.502
				c0.741,1.114,2.077,1.707,3.404,1.509c0.51-0.074,0.985-0.257,1.414-0.545l3.472-2.316c1.174-0.781,1.975-1.977,2.253-3.363
				c0.278-1.389-0.001-2.805-0.788-3.981l-4.855-7.278c0.065,0.01,0.156,0.025,0.262,0.064c0.863,0.305,1.752,0.399,2.574,0.277
				c0.673-0.102,1.296-0.339,1.852-0.711c2.43-1.619,2.795-5.352,0.816-8.32c-1.501-2.245-3.915-3.483-6.15-3.149
				c-0.673,0.1-1.296,0.337-1.85,0.706c-1.258,0.835-2.002,2.227-2.095,3.91c-0.006,0.12-0.026,0.21-0.045,0.274l-2.246-3.368
				c-1.132-1.695-3.168-2.597-5.187-2.3c-0.779,0.118-1.505,0.397-2.159,0.835l-3.367,2.245c0.009-0.063,0.026-0.154,0.064-0.261
				c0.564-1.599,0.411-3.17-0.432-4.427C52.333,102.571,50.381,101.813,48.177,102.14L48.177,102.14z"/>
		</g>
		<path display="none" fill="#E2E2E4" d="M76.833,70.96c1.672-0.249,3.189,0.243,4.16,1.349c0.896,1.02,1.217,2.408,0.902,3.913
			c-0.084,0.399-0.038,0.758,0.123,0.942c0.132,0.148,0.328,0.22,0.526,0.191c0.11-0.018,0.212-0.063,0.297-0.139l3.249-2.854
			c0.698-0.614,1.554-1.012,2.472-1.148c1.635-0.243,3.259,0.351,4.344,1.589l14.466,16.458c1.759,2.002,1.563,5.062-0.437,6.821
			l-3.247,2.854c-0.427,0.374-0.949,0.618-1.51,0.699c-0.996,0.149-1.987-0.213-2.65-0.969c-0.661-0.752-0.9-1.841-0.658-2.985
			c0.091-0.44,0.167-1.265-0.365-1.866c-0.433-0.491-1.175-0.701-2.039-0.572c-0.817,0.122-1.655,0.53-2.363,1.153
			c-0.913,0.803-1.497,1.869-1.562,2.858c-0.024,0.403,0.027,0.979,0.423,1.428c0.531,0.603,1.359,0.635,1.802,0.603
			c1.169-0.095,2.219,0.286,2.879,1.038c1.073,1.216,0.955,3.079-0.264,4.156l-6.904,6.067c-0.701,0.616-1.557,1.013-2.478,1.148
			c-1.633,0.245-3.256-0.351-4.342-1.584l-6.07-6.907c-1.071-1.223-0.95-3.089,0.271-4.154c0.426-0.379,0.972-0.625,1.578-0.716
			c0.455-0.066,0.93-0.048,1.407,0.056c0.339,0.069,0.661,0.081,0.955,0.039c0.36-0.055,0.667-0.191,0.912-0.405
			c0.604-0.531,0.633-1.354,0.599-1.8c-0.067-0.881-0.496-1.827-1.176-2.603c-0.967-1.1-2.295-1.704-3.384-1.543
			c-0.357,0.056-0.662,0.189-0.907,0.403c-0.603,0.531-0.635,1.356-0.601,1.8c0.095,1.167-0.283,2.219-1.037,2.881
			c-0.426,0.376-0.949,0.621-1.51,0.704c-0.996,0.147-1.986-0.215-2.65-0.969l-2.854-3.248c-1.757-2-1.559-5.06,0.44-6.819
			l6.904-6.067c0.158-0.14,0.191-0.312,0.197-0.401c0.005-0.091-0.005-0.266-0.145-0.425c-0.159-0.182-0.512-0.275-0.918-0.243
			c-1.509,0.12-2.88-0.39-3.762-1.396c-0.882-1.002-1.211-2.425-0.902-3.902c0.287-1.374,1.088-2.696,2.253-3.72
			C74.302,71.757,75.572,71.148,76.833,70.96 M76.747,70.376c-1.372,0.204-2.75,0.863-3.878,1.854
			c-1.261,1.108-2.128,2.543-2.442,4.042c-0.348,1.663,0.032,3.271,1.038,4.414c1.005,1.148,2.555,1.729,4.252,1.595
			c0.271-0.021,0.416,0.04,0.44,0.057l-6.915,6.047c-2.246,1.976-2.466,5.408-0.495,7.652l2.854,3.248
			c0.798,0.906,1.986,1.34,3.18,1.163c0.673-0.1,1.3-0.393,1.813-0.843c0.895-0.789,1.347-2.019,1.236-3.372
			c-0.025-0.335-0.008-0.95,0.403-1.311c0.156-0.136,0.36-0.226,0.603-0.263c0.882-0.13,2.029,0.41,2.855,1.35
			c0.596,0.68,0.974,1.501,1.031,2.258c0.025,0.335,0.009,0.95-0.4,1.309c-0.158,0.138-0.363,0.23-0.608,0.265
			c-0.229,0.035-0.48,0.023-0.746-0.032c-0.548-0.117-1.092-0.139-1.618-0.06c-0.718,0.105-1.368,0.403-1.881,0.855
			c-1.464,1.28-1.61,3.519-0.324,4.987l6.072,6.907c1.218,1.386,3.04,2.053,4.871,1.78c1.035-0.154,1.997-0.602,2.781-1.291
			l6.903-6.065c1.464-1.294,1.605-3.531,0.319-4.994c-0.786-0.893-2.013-1.345-3.369-1.236c-0.335,0.027-0.951,0.009-1.313-0.401
			c-0.262-0.3-0.295-0.708-0.275-0.999c0.054-0.837,0.563-1.756,1.36-2.454c0.623-0.55,1.354-0.907,2.061-1.013
			c0.662-0.1,1.211,0.039,1.509,0.38c0.362,0.409,0.3,1.021,0.23,1.35c-0.281,1.331,0.008,2.604,0.792,3.497
			c0.797,0.909,1.985,1.346,3.182,1.168c0.674-0.1,1.3-0.393,1.813-0.842l3.246-2.854c2.245-1.977,2.465-5.409,0.49-7.653
			L93.351,74.414c-1.217-1.389-3.04-2.057-4.873-1.784c-1.033,0.153-1.993,0.599-2.777,1.29l-3.248,2.854
			c0.007-0.01-0.036-0.163,0.021-0.428c0.355-1.691-0.014-3.263-1.036-4.425C80.33,70.66,78.621,70.098,76.747,70.376L76.747,70.376
			z"/>
		<path display="none" fill="#E2E2E4" d="M103.704,107.395c0.771-0.115,1.563-0.099,2.358,0.049c3.189,0.588,5.4,3.142,4.934,5.695
			c-0.242,1.299-1.11,2.381-2.454,3.052c-0.341,0.164-0.576,0.406-0.616,0.621c-0.034,0.187,0.039,0.327,0.084,0.392
			c0.046,0.067,0.149,0.183,0.338,0.217l8.724,1.61c2.55,0.473,4.243,2.93,3.773,5.479l-0.758,4.102
			c-0.223,1.215-1.193,2.152-2.413,2.332c-0.313,0.048-0.63,0.044-0.946-0.014c-0.965-0.181-1.811-0.872-2.313-1.896
			c-0.189-0.379-0.619-1.036-1.363-1.172c-0.163-0.032-0.332-0.035-0.501-0.01c-1.119,0.166-2.146,1.446-2.439,3.045
			c-0.348,1.874,0.416,3.652,1.663,3.885c0.166,0.03,0.337,0.035,0.507,0.01c0.401-0.063,0.813-0.277,1.181-0.616
			c0.567-0.528,1.229-0.865,1.907-0.964c0.314-0.046,0.629-0.044,0.94,0.014c1.56,0.288,2.598,1.797,2.312,3.361l-1.609,8.722
			c-0.364,1.979-1.945,3.509-3.937,3.802c-0.512,0.079-1.031,0.067-1.544-0.025l-8.727-1.607c-0.756-0.141-1.415-0.57-1.852-1.202
			c-0.438-0.637-0.599-1.405-0.46-2.157c0.177-0.969,0.868-1.813,1.894-2.313c0.378-0.191,1.034-0.616,1.173-1.363
			c0.23-1.25-1.159-2.598-3.036-2.943c-0.537-0.1-1.069-0.111-1.581-0.035c-1.242,0.185-2.146,0.854-2.303,1.703
			c-0.137,0.745,0.323,1.379,0.609,1.688c0.781,0.84,1.123,1.875,0.946,2.837c-0.227,1.214-1.196,2.152-2.417,2.333
			c-0.313,0.046-0.63,0.041-0.944-0.017l-4.103-0.757c-2.55-0.473-4.243-2.932-3.773-5.48l1.608-8.718
			c0.052-0.286-0.139-0.563-0.42-0.616c-0.05-0.009-0.104-0.009-0.16,0c-0.197,0.03-0.435,0.159-0.648,0.357
			c-0.724,0.669-1.567,1.092-2.439,1.221c-0.429,0.064-0.861,0.055-1.281-0.021c-1.28-0.238-2.39-1.126-3.043-2.443
			c-0.608-1.223-0.791-2.713-0.518-4.194c0.48-2.6,2.295-4.637,4.417-4.952c0.427-0.064,0.856-0.058,1.276,0.021
			c1.299,0.24,2.383,1.107,3.054,2.454c0.165,0.337,0.404,0.575,0.62,0.614c0.06,0.012,0.115,0.012,0.171,0.004
			c0.186-0.027,0.395-0.17,0.44-0.422l0.756-4.102c0.363-1.977,1.944-3.506,3.935-3.802c0.513-0.076,1.033-0.066,1.545,0.028
			l4.104,0.754c0.057,0.009,0.113,0.012,0.169,0.002c0.185-0.027,0.394-0.168,0.438-0.42c0.039-0.219-0.096-0.527-0.357-0.81
			c-1.014-1.098-1.438-2.42-1.199-3.721C99.77,109.147,101.447,107.729,103.704,107.395 M103.617,106.812
			c-2.51,0.371-4.383,1.977-4.772,4.087c-0.274,1.488,0.204,2.987,1.346,4.227c0.083,0.09,0.135,0.168,0.166,0.229l-3.979-0.736
			c-0.577-0.105-1.161-0.117-1.739-0.029c-2.24,0.332-4.02,2.053-4.427,4.276l-0.736,3.986c-0.035-0.049-0.091-0.127-0.142-0.233
			c-0.757-1.518-1.99-2.5-3.476-2.772c-0.483-0.092-0.978-0.099-1.471-0.025c-2.368,0.354-4.386,2.584-4.913,5.431
			c-0.295,1.607-0.092,3.228,0.57,4.563c0.738,1.486,2.001,2.491,3.467,2.762c0.486,0.088,0.98,0.097,1.473,0.022
			c0.991-0.145,1.942-0.62,2.754-1.37c0.086-0.08,0.165-0.134,0.224-0.163l-1.586,8.598c-0.528,2.869,1.377,5.638,4.247,6.171
			l4.103,0.756c0.38,0.069,0.761,0.076,1.139,0.019c1.469-0.217,2.638-1.347,2.91-2.808c0.214-1.148-0.185-2.369-1.094-3.345
			c-0.211-0.23-0.553-0.692-0.462-1.181c0.109-0.591,0.836-1.082,1.811-1.228c0.445-0.064,0.912-0.056,1.389,0.032
			c1.646,0.303,2.71,1.441,2.561,2.256c-0.093,0.494-0.576,0.799-0.854,0.939c-1.194,0.583-2.003,1.582-2.213,2.738
			c-0.168,0.908,0.028,1.831,0.555,2.598c0.526,0.763,1.318,1.277,2.229,1.448l8.728,1.605c0.579,0.106,1.165,0.118,1.739,0.032
			c2.24-0.334,4.02-2.053,4.429-4.279l1.608-8.725c0.346-1.882-0.903-3.7-2.784-4.048c-0.374-0.069-0.756-0.074-1.135-0.019
			c-0.797,0.12-1.565,0.508-2.224,1.118c-0.276,0.257-0.583,0.42-0.863,0.462c-0.106,0.016-0.211,0.014-0.313-0.005
			c-0.813-0.152-1.494-1.55-1.19-3.197c0.245-1.336,1.083-2.438,1.948-2.567c0.103-0.017,0.206-0.014,0.308,0.005
			c0.49,0.09,0.801,0.576,0.938,0.857c0.588,1.193,1.585,1.998,2.735,2.21c0.383,0.069,0.765,0.076,1.141,0.021
			c1.471-0.22,2.64-1.35,2.907-2.813l0.757-4.099c0.529-2.87-1.376-5.636-4.245-6.169l-8.604-1.587
			c0.048-0.037,0.124-0.093,0.225-0.141c1.517-0.757,2.5-1.989,2.773-3.477c0.53-2.872-1.896-5.737-5.403-6.383
			C105.31,106.703,104.451,106.687,103.617,106.812L103.617,106.812z"/>
	</g>
	<g>
	</g>
	<g>
	</g>
	<g>
	</g>
	<g>
	</g>
	<g>
	</g>
	<g>
	</g>
</g>
</svg>
